<?xml version="1.0" encoding="UTF-8" standalone="no"?>
<!DOCTYPE svg PUBLIC "-//W3C//DTD SVG 1.1//EN" "http://www.w3.org/Graphics/SVG/1.1/DTD/svg11.dtd">
<svg width="100%" height="100%" viewBox="0 0 2878 1858" version="1.1" xmlns="http://www.w3.org/2000/svg" xmlns:xlink="http://www.w3.org/1999/xlink" xml:space="preserve" xmlns:serif="http://www.serif.com/" style="fill-rule:evenodd;clip-rule:evenodd;stroke-linecap:round;stroke-linejoin:round;stroke-miterlimit:1.5;">
    <g transform="matrix(1,0,0,1,-643.944767,-477.834302)">
        <g transform="matrix(1,0,0,1,2082.944767,1406.834302)">
            <g transform="matrix(1,0,0,1,-1439,-929)">
                <g transform="matrix(1,0,0,1,-634.50453,-485)">
                    <g transform="matrix(1.014606,0,0,1.00267,-51.295034,-3.185581)">
                        <path d="M2485,1446L2818,1193L3174,1355L3274,1236L3512,1266L3421,1621L3186,1698C3186,1698 3188.833,1866.833 3164,1857C3139.167,1847.167 3078.167,1636.167 3037,1639C2995.833,1641.833 2992.058,1828.148 2917,1874C2834.333,1924.5 2541,1942 2541,1942L2485,1446Z" style="fill:rgb(200,215,230);stroke:white;stroke-opacity:0;stroke-width:0.99px;"/>
                    </g>
                    <g transform="matrix(1,0,0,1,634.50453,485)">
                        <path d="M1838,956L1903,1561L1198,1568L1145,1767L902,1696C902,1696 1027.333,1374.833 1069,1276C1093.847,1217.063 1116.5,1146.333 1152,1103C1185.044,1062.665 1235.167,1038.833 1282,1016C1328.833,993.167 1398.278,975.056 1433,966" style="fill:rgb(222,190,191);"/>
                    </g>
                    <path d="M661,1210C801,1290.111 1081,1450.333 1172,1511C1191.988,1524.326 1191.5,1565.5 1207,1574C1222.5,1582.5 1246.929,1569.951 1265,1562C1294.167,1549.167 1338.343,1506.191 1382,1497C1426.333,1487.667 1488.833,1497.167 1531,1506C1567.842,1513.718 1600.501,1534.943 1635,1550C1674.333,1567.167 1735.5,1582.333 1767,1609C1796.505,1633.978 1807,1685 1824,1710C1836.47,1728.338 1851.167,1750.333 1869,1759C1886.833,1767.667 1910.31,1762.145 1931,1762C1954.833,1761.833 1987.167,1758.167 2012,1758C2034.688,1757.848 2061.667,1757.333 2080,1761C2095.068,1764.014 2108.5,1773.167 2122,1780C2135.317,1786.741 2147.329,1796.009 2161,1802C2175.833,1808.5 2194.107,1814.049 2211,1819C2230.333,1824.667 2254.718,1831.571 2277,1836C2303.833,1841.333 2340.323,1846.069 2372,1851C2407.333,1856.5 2463.833,1865.167 2489,1869C2500.325,1870.725 2515.442,1872.908 2523,1874" style="fill:none;stroke:rgb(187,216,234);stroke-width:25px;"/>
                    <g transform="matrix(1,0,0,1,634.50453,485)">
                        <path d="M859,392C782.667,523.667 630,787 630,787L1129,1101L1281,992L977,720" style="fill:rgb(225,177,155);"/>
                    </g>
                    <path d="M1477.363,2322C1537.04,2143.333 1656.394,1786 1736,1644C1781.593,1562.672 1882.667,1504.167 1955,1470C2020.471,1439.075 2099.333,1442.167 2170,1439C2239.711,1435.876 2320.667,1458.333 2379,1451C2429.176,1444.692 2475.747,1419.477 2520,1395C2565.5,1369.833 2613,1329.667 2652,1300C2686.888,1273.461 2716.852,1240.269 2754,1217C2799.5,1188.5 2871.836,1164.82 2925,1129C3026.667,1060.5 3272.833,876.167 3364,806C3402.523,776.351 3448.841,730.784 3472,708" style="fill:none;stroke:rgb(170,125,105);stroke-width:42px;"/>
                    <g transform="matrix(0.496702,-0.867922,0.867922,0.496702,-120.09095,1641.795485)">
                        <rect x="1068" y="805" width="407" height="199" style="fill:rgb(215,215,170);"/>
                    </g>
                    <g transform="matrix(1,0,0,1,-5,-2)">
                        <path d="M649.505,2322L1717,497" style="fill:none;stroke:rgb(170,125,105);stroke-width:20px;"/>
                    </g>
                </g>
                <path d="M4,1301L151,1117L138,967L102,879L153,794L365,477L369,386L743,-11L-21,-11" style="fill:rgb(187,216,234);"/>
            </g>
        </g>
    </g>
    <g transform="matrix(1.248201,0,0,1.248201,-91.054913,-115.96783)">
        <g transform="matrix(60,0,0,60,450.020245,230.324387)">
        </g>
        <text x="122.24px" y="230.324px" style="font-family:'Louize', sans-serif;font-size:60px;">Presa Allende</text>
    </g>
</svg>
