<?xml version="1.0" encoding="UTF-8" standalone="no"?>
<!DOCTYPE svg PUBLIC "-//W3C//DTD SVG 1.1//EN" "http://www.w3.org/Graphics/SVG/1.1/DTD/svg11.dtd">
<svg width="100%" height="100%" viewBox="0 0 641 1053" version="1.1" xmlns="http://www.w3.org/2000/svg" xmlns:xlink="http://www.w3.org/1999/xlink" xml:space="preserve" xmlns:serif="http://www.serif.com/" style="fill-rule:evenodd;clip-rule:evenodd;stroke-linejoin:round;stroke-miterlimit:2;">
    <g transform="matrix(1,0,0,1,-12054.869987,-1295.014125)">
        <g transform="matrix(4.166667,0,0,4.166667,10125,0)">
            <g transform="matrix(1,0,0,1,610.5767,378.0074)">
                <path d="M0,-32.832C-5.414,-43.299 -17.947,-30.477 -25.489,-29.088C-27.297,-37.272 -21.278,-48.03 -25.296,-56.602C-31.776,-68.001 -44.018,-53.88 -49.374,-47.984C-52.669,-43.552 -55.934,-44.055 -57.026,-48.647C-60.898,-61.163 -66.335,-67.213 -72.363,-67.204C-78.39,-67.195 -84.048,-61.186 -87.934,-48.699C-89.289,-44.141 -90.83,-43.842 -94.498,-48.264C-100.341,-55.404 -115.184,-69.376 -119.235,-53.045C-122.137,-47.857 -113.252,-23.26 -122.793,-30.835C-133.016,-37.487 -139.833,-37.671 -143.483,-34.701C-147.807,-31.184 -148.077,-22.662 -146.592,-13.733C-145.356,-6.303 -142.804,1.468 -139.893,7.085C-134.945,16.867 -130.238,23.306 -126.108,27.734C-117.891,36.544 -111.315,36.469 -104.113,33.398C-97.295,30.49 -90.233,25.092 -81.741,22.35C-74.824,20.116 -66.969,19.937 -57.428,24.149C-49.764,27.132 -44.214,35.032 -36.064,34.993C-29.446,34.528 -22.828,31.763 -17.204,26.124C-12.435,21.341 -8.876,14.775 -5.548,8.134C-2.261,1.576 1.292,-5.117 2.529,-11.829C4.006,-19.843 2.449,-27.176 0,-32.832" style="fill:white;fill-rule:nonzero;"/>
            </g>
        </g>
        <g transform="matrix(4.166667,0,0,4.166667,10125,0)">
            <g transform="matrix(1,0,0,1,614.1726,502.9302)">
                <path d="M0,-36.622C-2.607,-38.66 -5.47,-35.032 -7.332,-33.271C-10.774,-29.56 -14.642,-26.641 -18.698,-23.894C-22.874,-21.066 -26.489,-17.426 -30.682,-14.989C-35.151,-12.391 -40.229,-10.997 -43.96,-8.09C-48.348,-4.686 -51.504,0.169 -55.102,4.485C-58.698,8.798 -62.522,12.929 -66.198,17.015C-72.622,24.154 -70.141,11.636 -70.447,7.769C-70.727,1.069 -70.79,-5.053 -64.528,-8.212C-61.717,-9.969 -57.645,-13.36 -53.438,-17.096C-49.844,-20.288 -46.456,-23.964 -43.894,-27.519C-40.367,-32.414 -38.497,-36.681 -41.188,-40.018C-46.791,-39.784 -55.637,-34.713 -61.891,-33.78C-73.879,-29.274 -68.542,-40.762 -63.175,-44.399C-60.245,-47.282 -56.848,-50.724 -53.877,-54.634C-51.047,-58.357 -49.2,-62.65 -47.736,-66.877C-46.194,-71.327 -45.282,-75.649 -46.808,-80.184C-49.287,-85.733 -53.267,-90.252 -58.437,-93.079C-63.508,-95.853 -69.573,-97.321 -75.505,-97.427C-81.478,-97.535 -87.818,-96.702 -92.922,-94.057C-98.137,-91.355 -101.955,-86.459 -104.421,-80.834C-106.386,-75.164 -106.149,-70.181 -104.377,-65.592C-102.562,-60.89 -99.157,-56.744 -95.893,-52.564C-92.578,-48.32 -89.716,-43.87 -87.508,-39.519C-86.23,-37 -84.979,-34.421 -84.958,-31.597C-84.931,-28.147 -85.202,-22.269 -84.906,-15.961C-84.659,-10.685 -84.653,-5.134 -84.81,-0.37C-85.091,8.181 -85.665,13.843 -89.68,10.453C-93.556,7.667 -99.012,3.615 -104.294,-1.639C-108.625,-5.947 -112.793,-11.06 -116.911,-15.829C-121.475,-21.114 -125.092,-26.66 -128.045,-31.115C-132.92,-38.46 -136.563,-33.545 -137.459,-26.971C-138.22,-21.388 -137.254,-14.31 -136.207,-11.97C-134.614,-5.65 -131.899,0.094 -128.227,5.222C-124.571,10.329 -119.469,14.233 -114.628,18.432C-109.807,22.613 -105.486,27.665 -100.356,31.218C-91.604,35.141 -87.305,38.707 -85.548,42.683C-81.919,50.9 -87.84,58.443 -80.982,60.331C-77.882,60.332 -73.377,60.913 -72.399,57.993C-71.73,52.516 -73.146,44.028 -66.353,41.313C-61.767,39.31 -56.693,37.332 -51.568,34.78C-46.865,32.438 -42.053,29.926 -37.326,27.108C-32.682,24.34 -28.369,21.099 -24.095,17.86C-19.692,14.524 -15.302,11.386 -11.711,7.538C-7.905,3.458 -4.1,-0.542 -1.698,-5.214C0.785,-10.044 2.154,-15.383 2.584,-20.862C2.981,-25.911 1.804,-31.008 0,-36.622" style="fill:white;fill-rule:nonzero;"/>
            </g>
        </g>
    </g>
</svg>
