<svg xmlns="http://www.w3.org/2000/svg" viewBox="0 0 192.8 196.8">
<!-- SVG created with Arrow, by QuiverAI (https://quiver.ai) -->
  <style type="text/css">.cls-0 {fill:#D2D6BA;}
.cls-1 {fill:#BFC4A3;}
.cls-2 {fill:#FFFFFF;}
.cls-3 {fill:#B4AE90;}
.cls-4 {fill:#A7A9AC;}
.cls-5 {fill:#A9BA9F;}
.cls-6 {fill:#B89982;}
.cls-7 {fill:#D2BA93;}
.cls-8 {fill:#EED8B9;}
.cls-9 {fill:#D0CEC2;}
.cls-10 {fill:none;stroke:#D0CEC2;stroke-width:0.1;stroke-miterlimit:10;}
.cls-11 {fill:none;stroke:#B4AE90;stroke-width:1.5;stroke-miterlimit:10;}
.cls-12 {fill:none;stroke:#B89982;stroke-width:0.1;stroke-miterlimit:10;}
.cls-13 {fill:none;stroke:#BFC4A3;stroke-width:0.1;stroke-miterlimit:10;}
.cls-14 {fill:none;stroke:#B4AE90;stroke-width:0.1;stroke-miterlimit:10;stroke-dasharray:0.5025,0.5025;}
.cls-15 {fill:none;stroke:#D2D6BA;stroke-width:0.1;stroke-miterlimit:10;stroke-dasharray:0.5;}
.cls-16 {fill:none;stroke:#D7D2C1;stroke-width:0.1;stroke-miterlimit:10;stroke-dasharray:0.5;}
.cls-17 {fill:none;stroke:#77787B;stroke-width:0.9;stroke-miterlimit:10;}
.cls-18 {fill:#9E929E;}
.cls-19 {fill:#BDCED6;}
.cls-20 {fill:#8F849C;}
.cls-21 {fill:#B47D6C;}
.cls-22 {fill:#D4B871;}
.cls-23 {fill:#D6BE71;}
.cls-24 {fill:#ECD78E;}
.cls-25 {fill:#BDD2E2;}
.cls-26 {fill:#98B09A;}
.cls-27 {fill:#97AC91;}
.cls-28 {fill:#8D9E8A;}
.cls-29 {fill:#97A684;}
.cls-30 {fill:#8F9D7D;}
.cls-31 {fill:#C0CDCE;}
.cls-32 {fill:#8B9BC8;}
.cls-33 {fill:#9EB5C8;}
.cls-34 {fill:#B8C8D3;}
.cls-35 {fill:#BED2E3;}
.cls-36 {fill:#ABC1CC;}
.cls-37 {fill:#96B1A0;}
.cls-38 {fill:#9BAF9B;}
.cls-39 {fill:#8FA38D;}
.cls-40 {fill:#91A58C;}
.cls-41 {fill:none;stroke:#77787B;stroke-width:0.25;stroke-miterlimit:10;}
.cls-42 {fill:none;stroke:#FFFFFF;stroke-width:0.1;stroke-miterlimit:10;stroke-dasharray:0.5;}
.cls-43 {fill:none;stroke:#FFFFFF;stroke-width:0.1;stroke-miterlimit:10;}
.cls-44 {fill:none;stroke:#77787B;stroke-width:0.25;stroke-miterlimit:10;stroke-dasharray:0.5;}
.cls-45 {fill:#A7A9AC;stroke:#77787B;stroke-width:0.15;stroke-miterlimit:10;}
.cls-46 {fill:#C6C5B6;}
.cls-47 {fill:#B1B0A9;}
.cls-48 {fill:#C0BAAD;}
.cls-49 {fill:none;stroke:#A7A9AC;stroke-width:0.15;stroke-miterlimit:10;}
.cls-50 {fill:#B2B2B2;}
.cls-51 {fill:none;stroke:#FFFFFF;stroke-width:0.1;stroke-miterlimit:10;stroke-dasharray:0.5;}
.cls-52 {fill:none;stroke:#FFFFFF;stroke-width:0.1;stroke-miterlimit:10;stroke-dasharray:0.5023,0.5023;}
.cls-53 {fill:#878D78;}
.cls-54 {font-family:'ArialMT';}
.cls-55 {font-size:0.9px;}
.cls-56 {fill:none;}
.cls-57 {fill:#1D1D1B;}
.cls-58 {font-size:1.4px;}</style>
  <polygon class="cls-0" points="192.8 95.3 191.8 90.8 154.3 84.4 151.8 142.7 163.4 154.5 168.5 156 182.7 156.2 166.6 158.9 159.1 154.8 147.7 145.5 149.8 45.5 150.4 33.2 91.1 33.3 92.6 70.2 101.8 101.8 106.6 110.2 114 116.3 122.6 128.7 127 138.5 129.5 137.6 134.5 143.6 139.9 148.8 146.3 153.6 156.6 156.8 153.6 162.9 167.7 158.9 192.8 155.1"/>
  <path class="cls-0" d="m129.5 137.6-2.5 1.4-5.4-10.3-7.6-12.4-6.6-5.7-5.6-8.6-10.2-31.8-2.5-42.4-3.1-4.2-21.7-14.4-7.5 11.8-56.8 100.4v75.4l46.1 0.1 6.2-14.7 5.7 1.9-2.7 7.2 9.5 3.9 4.2-10.6 10.6 4.2-3.6 8.1 51.9-0.1 10.4-11.1 21.9-13.8 3.2-1.3 0.2-3.9-1.3-1.9-7.9-1.2-8.5-9.5-6.4-4.5z"/>
  <path class="cls-1" d="m122.5 196.9-2.3-2.4-2.7-0.3-2.1 0.7-0.2-1.1 0.9-2.8-5.8-0.8-8.8-5.6-15-5.2-8.9-2.5-10.4-5.2-12.4-0.5-7.9-0.8-12 0.2-6.1-0.4-6 2-7.8 5.1-7.5 3.1-7.5 4.7v11.8z"/>
  <path class="cls-1" d="m192.8 172.4-16.1 3.2-10.1 3.3-9 4.5-17.4 13.5 52.6-0.1z"/>
  <path class="cls-1" d="m139.9 165.9-6.1 0.7-7-15.5 0.7-9 6 7.5 10.7 8 8.7 5.4z"/>
  <path class="cls-1" d="m63 21.5 13.8 8.2 6.6 25.9 3.1 25.9 3.3 13.2 2.5 6.6 4 5.8 20.5 20.8 9.8 14-5.7 11.2-11.5-9.1-9.2-7.9-8.9-10-7.4-13.1-3.7-4.9-4.1-9.9-2-8.6-2.1-9.5-2-16.7-2.4-22.6-0.7-5.8-2.9-2.8z"/>
  <path class="cls-0" d="m0 33.3 7.2 3.3 2.6 1.3 3.1 1.4 2 2.4-1.7 2.9-8.8 15.2-0.3 5.8-4.1 8.5z"/>
  <path class="cls-1" d="m0 7.6 4.8-7.6 8.7 0.1 12.8 3.8 6-3.9h3.7l15.4 7.6-10.1 16.8-11.2 18.4-3.8 4.1-7.3-3.7-4.1-1.5-2-2.4-3.1-1.4-3-1.5-6.8-3.1z"/>
  <path class="cls-7" d="m0.5 65.1-0.5-1.1v-8.6l8.9-15.7 2.9 1.7 0.2 2.9-0.2 1-7.6 14.1z"/>
  <path class="cls-8" d="m2.4 7.3 3.4 0.3-0.4 6.8 1 2.2 1.7-2.2 2.8-3.1 3 1.5-7.5 13.5-0.6 8.1-3.7-0.4 0.8-9.1-2.9 3.4v-1.1l1.9-4.8 0.5-6.8-0.2-0.5 0.2-1.2z"/>
  <path class="cls-9" d="m0 86.9 3.8 1.3 2.9-5.1-2-1.7-3.3 5.8-1.4-0.3z"/>
  <path class="cls-7" d="m0.1 65.6 1.7 0.7-0.6 7.5-1.2 0.3z"/>
  <path class="cls-8" d="m10.6 35.7 4.9 3.5 13.5-21.4-5.1-1.5z"/>
  <path class="cls-8" d="m19.6 41.6 8.2 4.1 9.6-42.4-4.8-2.5z"/>
  <path class="cls-10" d="m0 40.4 8.6 4.9"/>
  <path class="cls-11" d="m64.6 8.8 22.2 14.8 2.8 4.2 2.1 42.4s7.4 28.6 10.1 32.9 4.8 7.8 4.8 7.8l6.8 5.7 7.9 11.7 5.5 10.9 6.7 8.9"/>
  <path class="cls-3" d="m126.8 139 6.7 10.1 1.1-0.9 13.3 9.8 5.3 4.7h0.7l2.5-5.9-10.1-3s-9.7-6.1-16.8-16.1l-2.7 1.3z"/>
  <path class="cls-3" d="m48.8 10 5.3-8.1-1.2-1-3 3.9-7.9-4.8-0.6 0.9z"/>
  <path class="cls-4" d="m23.5 53.6c-3.3-0.7-5.5-3.7-5.5-6.7 0-2.2 1.1-5 1.6-5.3l-2.7-1.8-1.1 1.9-1.9 0.2-2 2.7 0.5 1.1c1.2 0.8 0.5 2.2 0.5 2.6l-1.5 2.4c-1 2.9 3.2 4.6 3.5 4.6l4.1 1.8 2.1 1 2.4-4.5z"/>
  <path class="cls-5" d="m21.1 42.4c-1.3 0.9-2.3 2.5-2.3 4.3 0 3 2 5.6 4.7 6.9l4.1-6.9-6.5-4.3z"/>
  <path class="cls-4" d="m4.4 79.9-2.3 4-2.1 2.9v-2.5l1.9-3.7 4.9-9.2 6.1-11.2 0.5-1.1 0.6-1.2 3.6-1.5 1.8 1.2-0.6 1.6z"/>
  <path class="cls-4" d="m16.9 39.8 3.7 1.6 18-38.3-1.7-0.9z"/>
  <path class="cls-8" d="m23.9 16.3 5 2.5 8.2-13-4.8-3.8z"/>
  <path class="cls-12" d="m0 32.6 15.8 9.1"/>
  <path class="cls-13" d="m11.2 36.1 16.4 10.2"/>
  <path class="cls-14" d="m19.4 42.4 8.2 4.3"/>
  <path class="cls-15" d="m0 35.1 10.9 6.3"/>
  <path class="cls-16" d="m0 41.1 5.8 3.6"/>
  <path class="cls-11" d="m0 7.2 2.8-4.4"/>
  <path class="cls-1" d="m0 98.1 4.1-6.7-0.3-3.2-3.8-1z"/>
  <path class="cls-3" d="m0 193.8 3.6-5.8 5.2-4-3.2-1.7-5.6 3.2z"/>
  <path class="cls-1" d="m122.5 196.9-4.1-3.1-1.6 1.8 1.6 1.3z"/>
  <path class="cls-1" d="m67.6 171.7 10.4 4.6 12.9 4.1 10.3 3.2 8.7 6.5 6.2 3 0.2-2.4-6.1-0.5-8.7-5.6-15-5.2-8.9-2.5z"/>
  <path class="cls-17" d="m0 188.8 8.4-6.2 23.3-8.9 10.7-1 11.5 0.9 15.5 3.7 22.4 8.4 25.9 9.9 1.5 1.3"/>
  <path class="cls-18" d="m4.1 117.8 7.1 4.1 14.1 7.8 10 6 20 12.7 4.8-8.3-48.2-28.3-4-1.2z"/>
  <path class="cls-19" d="m40.2 102.6 11 6.4 8.7-14 1-4.3-4.1-11-7.4 10.4z"/>
  <path class="cls-20" d="m19.6 113.3 2.8-5.7 27.5 13.8 4-6.9 10.2 5.4-6 12.2z"/>
  <path class="cls-21" d="m64.1 139.5 19.3 11.1 16.8 9.8 17.7 24 5-8.1v-0.4l0.5 0.2-0.5-0.5 0.2 0.5-0.2-0.2 0.2 0.4-0.2-0.4v0.4l0.5-0.2-0.5-0.2 0.2 0.4v-0.4h-0.2l0.5 0.2-0.5-0.2 0.2 0.4v-0.4l-29-16.7-33.9-18.5z"/>
  <path class="cls-22" d="m41.4 101.6 6.7 3.8 3.5-4.5 2.5-3.2 5.1-11.3-6.1-3.7z"/>
  <path class="cls-23" d="m74.4 84.9 9.5-2.7 8.2 19.9 4.8 6.3-12.3 17.5-5.5-6-1.9-3.3-2.3-1.5 3-2h0.5l5.7-4.1-6-9.4v-2.7z"/>
  <path class="cls-24" d="m83.9 82.2 2.7 7.2-9.5 4-2.7-8.5z"/>
  <path class="cls-24" d="m84.6 108.9 7.5-4.3 4.8 4.8-5.5 10z"/>
  <path class="cls-24" d="m91.6 120.1 8-5 26 27.3-6.4 8-19.6-18.7z"/>
  <path class="cls-22" d="m102.4 160.7 2.5-4.1 10.7 6.1-2 4.5z"/>
  <path class="cls-22" d="m65.9 94.1 7.5-2.9 2.2 6.4-7.5 2.6z"/>
  <path class="cls-25" d="m66.6 32.7 10-1 2.5 12.9v10l4.5 27.6-9.5 1.9-5.5-33.5 0.5-5.2z"/>
  <path class="cls-26" d="m45.9 66.6 11.3-21.5 9.4-12.4-9.5-8.6-21.7 35.6z"/>
  <path class="cls-27" d="m29.4 73.1 7.5 7.6-7.5 11.5-8.3-5.3z"/>
  <path class="cls-28" d="m30.4 95.9 8.2 5.5 7.7-12.8-8.4-5z"/>
  <path class="cls-29" d="m24.4 104.6 3.2-4.9 26.3 14.8-4 6.9z"/>
  <path class="cls-30" d="m9.1 107.1 8.1 5.1 6.4-10.6-8.5-4.5z"/>
  <path class="cls-6" d="m34.4 73.1 7 4.5 3.2-5.5-7.2-4.7z"/>
  <path class="cls-4" d="m34.9 60.6 7.2 3.3-2.5 5.2-6.2-3.2z"/>
  <path class="cls-5" d="m30.4 73.1 6.8 2.5-2.8-2.5 2.5-5.5-4-3z"/>
  <path class="cls-6" d="m49.9 95.6 4 4.5 5.2-10.5-1.7-1z"/>
  <path class="cls-24" d="m47.9 87.9 5.2-5.2 6 3.4-1 2.5-2 1.8z"/>
  <path class="cls-31" d="m26.9 97.9 2.2-2.3 1.5 0.8 1 0.7-1.2 1.8-1-0.8-1 1.3z"/>
  <path class="cls-32" d="m39.1 84.9 4-7 7 4.2-3.7 6.8z"/>
  <path class="cls-33" d="m62.1 81.9 7-2 1.8 4-8 1.7z"/>
  <path class="cls-34" d="m48.9 68.6 7.5 3.8 10.2-18.5-5.2-3z"/>
  <path class="cls-35" d="m66.6 32.7 10-1 2.5 12.9-10 0.8z"/>
  <path class="cls-36" d="m63.4 87.9 8-2.5 2 5.8-8 2.9z"/>
  <path class="cls-35" d="m60.1 71.1 8-0.7 2.8 13.5-8 1.7z"/>
  <path class="cls-37" d="m29.4 73.1 7.5 2.5-2.5-2.5 3-5.7-4.5-2.8z"/>
  <path class="cls-25" d="m59.4 17.6 5.2 3.1-1.7 3.2-5-2.5z"/>
  <path class="cls-24" d="m63.4 61.9 4.2-0.8 0.8 7.5-5.3 1.3 1.8-3.5-0.8-1.5z"/>
  <path class="cls-28" d="m43.1 77.6 4-6 7.5 4.3 1.5 4.7-3 2.1-3.7 5.9z"/>
  <path class="cls-4" d="m60.1 25.4c1.1-1.3 2.9-2 4.5-2 1.2 0 2.3 0.5 3.3 1.2l4.5 3 1.2 1.5-0.5 2.8-6.2-4.5-2.5-1-2.5 1.5-1.8-2.5z"/>
  <path class="cls-8" d="m61.1 44.1c-0.9 0.6-1.5 2-1.5 2.8 0 1.5 1 3 2.8 3 1.7 0 3.5-1.2 3.5-3 0-1.5-1.3-3-3-3-0.5 0-1.3 0-1.8 0.2"/>
  <path class="cls-2" d="m62.4 48.9-0.5 0.7-0.3-0.2 0.5-1-1.2-0.8 1.5 0.3 0.2-3.5 0.8 0.5-0.8 1.2 1 1.3-0.5 0.2-0.7-0.7v1l1 0.7-0.3 0.3-0.7-0.3z"/>
  <path class="cls-38" d="m62.9 40.9c0 0.8 0.7 1.7 1.5 1.7 1 0 1.7-0.7 1.7-1.7s-0.7-1.7-1.7-1.7c-0.8 0-1.5 0.7-1.5 1.7"/>
  <path class="cls-39" d="m63.4 40.9c0 0.7 0.5 1 1 1 0.7 0 1.2-0.5 1.2-1 0-0.7-0.5-1.2-1.2-1.2-0.5 0-1 0.7-1 1.2"/>
  <path class="cls-2" d="m140.6 154.6 0.8-1 6.7 4.3-0.4 1.2z"/>
  <path class="cls-2" d="m133.1 149.4 1-1 7 5.2-0.5 1z"/>
  <path class="cls-40" d="m88.6 131.7c0 0.5 0.5 1 1 1 0.6 0 1-0.5 1-1 0-0.6-0.4-1-1-1-0.5 0-1 0.4-1 1"/>
  <path class="cls-39" d="m92.4 129.7c0 0.9 0.7 1.7 1.7 1.7s1.8-0.8 1.8-1.7c0-1-0.8-1.8-1.8-1.8s-1.7 0.8-1.7 1.8"/>
  <path class="cls-25" d="m92.6 129.7c0 0.9 0.6 1.5 1.5 1.5 0.8 0 1.5-0.6 1.5-1.5 0-0.8-0.7-1.5-1.5-1.5s-1.5 0.7-1.5 1.5"/>
  <path class="cls-40" d="m103.4 139.1c0 0.6 0.5 1.1 1 1.1 0.7 0 1.2-0.5 1.2-1.1 0-0.5-0.5-1-1.2-1-0.5 0-1 0.5-1 1"/>
  <path class="cls-25" d="m105.6 140.9c0 0.5 0.5 1 1.2 1 0.6 0 1.1-0.5 1.1-1s-0.5-1-1.1-1c-0.7 0-1.2 0.5-1.2 1"/>
  <path class="cls-25" d="m113.1 157.9c0 1 0.8 1.8 1.8 1.8s1.9-0.8 1.9-1.8-0.9-1.7-1.9-1.7-1.8 0.7-1.8 1.7"/>
  <path class="cls-39" d="m113.4 157.9c0 0.8 0.7 1.5 1.5 1.5 0.9 0 1.5-0.7 1.5-1.5s-0.6-1.5-1.5-1.5c-0.8 0-1.5 0.7-1.5 1.5"/>
  <path class="cls-25" d="m119.6 171.4c0 1.3 1 2.5 2.3 2.5s2.5-1.2 2.5-2.5-1.2-2.5-2.5-2.5-2.3 1.2-2.3 2.5"/>
  <path class="cls-39" d="m119.7 171.4c0 1.2 1 2.2 2.2 2.2s2.2-1 2.2-2.2-1-2.2-2.2-2.2-2.2 1-2.2 2.2"/>
  <path class="cls-25" d="m67.9 120.1c0 1 0.7 1.8 1.7 1.8s2-0.8 2-1.8-1-1.7-2-1.7-1.7 0.7-1.7 1.7"/>
  <path class="cls-39" d="m68.1 120.1c0 1 0.6 1.6 1.5 1.6 0.8 0 1.6-0.6 1.6-1.6 0-0.9-0.8-1.5-1.6-1.5s-1.5 0.6-1.5 1.5"/>
  <path class="cls-25" d="m13.4 51.4c0 0.8 0.7 1.3 1.5 1.3 0.7 0 1.5-0.5 1.5-1.3s-0.8-1.5-1.5-1.5c-0.8 0-1.5 0.7-1.5 1.5"/>
  <path class="cls-39" d="m13.6 51.4c0 0.7 0.6 1.2 1.3 1.2s1.3-0.5 1.3-1.2-0.6-1.3-1.3-1.3-1.3 0.6-1.3 1.3"/>
  <path class="cls-2" d="m79.1 129.4 2.3-0.8h2.2l-0.2 0.8h-2v0.7z"/>
  <path class="cls-41" d="m2.4 117.2 21-34.8 14.2-25.2 20-36.5 6.3-11.1"/>
  <path class="cls-42" d="m0 110.6 15.6-25.7 14.8-25.3 19-30.4 10.5-19.1"/>
  <path class="cls-43" d="m0 117.1 18.8-32.2 15.6-27 17-27.2 6.2-11.8 10.5-15.5"/>
  <path class="cls-44" d="m0 115.1 16.9-28.5 16-27.5 16.5-25.7 13.5-25"/>
  <path class="cls-43" d="m0 108.6 13.6-23 14.5-25.5 12.3-19.2 17.2-29.5"/>
  <path class="cls-42" d="m0 107.6 12.1-21 15.5-26 12.3-19.7 16-27.3"/>
  <path class="cls-41" d="m0 116.4 18.8-32.8 14.1-24 12.7-20.7 19.3-31.8"/>
  <path class="cls-4" d="m120.4 187.7 6.8-15-2.8-8.1-2.3-4.5-3.7 4.5-2.8 2 2.8 4.1 1 1.7 2 0.8 1.5 2.7-3 6.8 1 1.9z"/>
  <path class="cls-3" d="m123.4 144.9-1 1-1 6.7v5.3l2.5-1 0.7-6.2z"/>
  <path class="cls-45" d="m125.4 191.7 11-15.4 5.5-6.1 3.5-3-6 2-6-1.8h-2.8l-2.2-1.3-2-3.5-2-5.7-3 1v2.2l1 1.5v4l-2 4.6-2 3.9 2.5 9.1-0.5 4.5z"/>
  <path class="cls-46" d="m84.1 109-10.5 6.9 1.8 2.7 4.5 4.8 2.5 1.2v1.5l1 0.3 1.7-2.3 4.8-2 1-1.7-6.3-8.3 0.3-1 2-0.7-0.5-1.5-1.5-0.8z"/>
  <path class="cls-47" d="m70.9 101.9-3.5 1.2 1.7 3.3 3.3 4.5h2v-2.5l-3.8-3.5 2.3-1z"/>
  <path class="cls-48" d="m76.9 96.4 1.5 1.3 0.2 1.2 1-0.3 0.8-0.7-1.3-2.3z"/>
  <path class="cls-49" d="m125.1 127.1 5.5 11"/>
  <path class="cls-50" d="m192.8 154.9-6.7 0.5-8.4 1-9.1 1.7-8.2 2-7.5 2.3-6.5 2.5-5 2.5-4.5 3.2-2.8 4.3 3.8-3.2 4-2.8 5.8-2.5 9.2-3 7.2-2 10.3-2 8.7-1.3 7.3-0.5 2.4 1z"/>
  <path class="cls-50" d="m192.8 161.4-6.7 0.5-6.5 1.5-5.2 1.5-8 4.5 0.2-2-0.5-1.5-0.7-1.3-1-1.2-1.8-1-1.2 0.2 2.2 2 0.8 2 0.2 2-0.2 1.8-5.3 2.3-6.5 3.7-5.5 3.2-5.7 4-5.3 4.5-8.7 8.8h4.2l4.3-3.8 8-6.2 11.2-7 11-5.5 9.5-3.8 7.5-2.2 9.7-1.8z"/>
  <path class="cls-50" d="m192.8 168.4-6.2 1-7 1.7-7.2 2.5-6.3 2.3-3.7 2.2 4.2-1.2 5.5-2 7-2 13.7-2.5z"/>
  <path class="cls-2" d="m176.9 176.9 15.9-4.3v-1.5l-15.6 3-0.1 0.3 0.3 0.2v0.3l-0.5 0.2h0.5l-0.5 0.8 0.2 0.2h0.3v0.3h-0.5z"/>
  <path class="cls-2" d="m174.6 173.9 2.8-0.5 7-1.7v-2h-1.8l0.3 1.2-8.5 2.5z"/>
  <path class="cls-2" d="m183.6 172.9-1.5-5.7 10.7-2.3v0.2l-9.7 2.3 1.5 5.5z"/>
  <path class="cls-2" d="m174.6 163.1 13-4.5 0.5 2-1 0.3-0.5-1-12 3.2z"/>
  <path class="cls-2" d="m174.6 163.1v1.3l6.8-1.8-1-2.7-6 1.8z"/>
  <path class="cls-2" d="m174.6 164.4-0.2-1.8-0.5 0.3 0.2 1.7z"/>
  <path class="cls-2" d="m174.4 161.7 0.2 2.7-0.5 0.2-0.2-1.7 0.5-0.3-0.3-0.2v-0.8z"/>
  <path class="cls-2" d="m181.9 165.9-1-3.3-6.5 1.8 0.2 0.7 6-1.7 0.8 2.7z"/>
  <path class="cls-2" d="m129.4 165.6 1.8-1-1.6-3.5-2.5 0.8z"/>
  <path class="cls-3" d="m128.6 161.4 1.5 3 1.1-0.5-1.3-3z"/>
  <path class="cls-2" d="m133.6 196.9 5.3-5.2 6.7-5.3 6.8-4.5 7.5-4.3 7.5-3.5 6.5-2.4 5.2-1.8 3.3-0.8-0.3-1.2-4.7 1.2-6.3 2-6.7 2.8-7.8 3.7-7 4.1-6.7 4.7-5.3 4.2-5.5 4.8-0.7 1.5z"/>
  <path class="cls-51" d="m122.4 193.1 7-7.4 4.2-5.3 5.3-5.3 5-3.7 6-3.5 6-2.3 5.5-1.2 4.7-1.8 5.5-2"/>
  <path class="cls-52" d="m122.9 196.6 5-5.2 4.2-5.5 4-4.2 6.3-4.8 7.5-5 7-4.2 4-2.3 4.2-1 3.8-1.5 5.2-2"/>
  <path class="cls-11" d="m127.4 196.9s9.7-11.3 16-15.3c10.5-7.2 20.5-11 20.2-12.7 0.5-4.3-3.7-4.8-3.7-4.8s-12.2 1.3-19.5 7.5c-6 5-15 20.1-15 20.1"/>
  <path class="cls-11" d="m192.8 155.6s-9.9 0.3-19.4 2.1c-10.3 1.9-20 4.7-27 7.7-4.5 2-6.8 3.5-10 6.3"/>
  <path class="cls-12" d="m165.9 170.4 8-4 7.5-2.3 6.3-1.5 5.1-0.7"/>
  <path class="cls-12" d="m165.1 170.6 8-3.7 6.5-2 6.3-1.5 6.9-1.2"/>
  <path class="cls-3" d="m128.6 169.7 2.3-0.6 0.3 1.5h-2.3z"/>
  <path class="cls-2" d="m174.4 162.4 0.2 2 6.8-1.8-0.5-1.5z"/>
  <path class="cls-53" d="m141.1 173.4-1.2 1-0.5 0.7 0.7 0.5 0.5 0.8h0.8l-0.3-0.5h0.5v-1l-0.2-0.5 0.2-0.3z"/>
  <path class="cls-53" d="m147.9 160.6-1.3 0.3-1.5 0.7-0.2 1.5 1 0.5 0.7-0.5 0.5 0.3 0.8-0.3 0.7-0.2 1.3-0.3v-1l-0.5-0.7-0.8-0.5z"/>
  <path class="cls-53" d="m143.6 161.9-1.2 0.5-0.8 1.2 0.3 0.8 0.7 0.7 0.5-0.7 0.8 0.2 0.5-1-0.5-1.2z"/>
  <path class="cls-53" d="m139.9 163.6-1.3 0.8v1l1 0.5h1l0.3-1v-1z"/>
  <path class="cls-53" d="m133.6 165.1-1.5 0.8-0.2 1 1 1.2h1.2l0.3-0.7-0.3-1z"/>
  <path class="cls-53" d="m129.9 172.6-1-0.2-0.8 1.2v1.8l1.3 2 0.2 3.7-1.7 3.3-2.5 0.2-3-0.2v0.2l1 3.1 2 4 4.5-6 2.2-3.8-0.9-4.3 0.7-2.7z"/>
  <path class="cls-53" d="m87.4 172.6-2 2 0.5 1.3 1 0.5 0.5-1.3h1.2l0.3-0.7v-1z"/>
  <path class="cls-53" d="m95.6 177.1 0.5 1.3 1 1.2 1 1.5 1.3 0.5 0.7-1-0.2-3-1.3-1.7-0.7 1h-1z"/>
  <path class="cls-53" d="m102.9 183.1h-1.5l-1.3 0.5v2l2 0.5 0.5-1v-0.7z"/>
  <path class="cls-53" d="m99.4 183.1-1.8 0.3-0.7 1.2 0.7 1 1.8 0.3 0.2-1.3z"/>
  <path class="cls-53" d="m114.6 187.7-3.2-0.8-0.8 1.2 0.5 1.3 1.5 0.2 0.5 1 1.3-0.2 0.2-0.8v-1.2"/>
  <path class="cls-53" d="m118.1 186.4-1.5-0.5-0.7 0.7 0.2 1.5 1.3 0.5 0.7-0.7-0.2-1"/>
  <path class="cls-53" d="m125.6 180.9h-1.2l-1 1.2 0.5 1.5 1.7 0.3 0.3-1z"/>
  <path class="cls-53" d="m128.1 177.9-1.7 0.2-0.8 1.3 0.8 1.5h1.5l0.7-1.3z"/>
  <path class="cls-53" d="m128.6 175.6-1.2 0.5v1.3l1 0.5 1.2-0.8v-0.7z"/>
  <path class="cls-53" d="m10.6 123.1-2.5-0.7-0.7 1 0.2 1.2 0.8 0.3 1.2 0.7 0.5-1.2z"/>
  <path class="cls-53" d="m8.1 125.1-1.7 0.3-1.8 1.2 0.3 1.3 1 0.5 1 1 1.5 0.5-0.3-1 1 0.5 0.3-1.5v-1.5l-1.5-0.3z"/>
  <path class="cls-53" d="m6.6 119.4-1.5 0.2-0.7 1.3 0.5 1 1.5 0.2 0.5-0.7-0.3-1z"/>
  <path class="cls-53" d="m9.6 109.9 1.8 0.7 0.2-1.2-1-1z"/>
  <path class="cls-53" d="m14.1 111.6 1 1.5 0.5-0.5-0.2-1.2z"/>
  <path class="cls-53" d="m16.9 113.6 1 1 0.5-0.7-1-1.3z"/>
  <rect class="cls-2" transform="matrix(.3749 -.9271 .9271 .3749 -82.08 63.9)" x="1.3" y="89.2" width="1.1" height="1.1"/>
  <path class="cls-53" d="m5.4 2.7-1.3 1.4 0.3 1 1.2 0.3 0.5-0.5 0.8 0.5 1-0.5 0.2-1-0.7-0.8-0.8-0.2z"/>
  <path class="cls-53" d="m10.9 0.6-1.3 0.3v1.2l1 0.8 0.8-1z"/>
  <path class="cls-53" d="m15.4 2.4-0.8 1.2 0.8 1 1-0.2 0.2-1.3z"/>
  <path class="cls-53" d="m18.1 3.4-1 2.5 2.3 1.2 0.5-1.7-0.5-1 0.7-0.8-1.2-0.5z"/>
  <path class="cls-53" d="m22.6 5.1 0.3 1.3 0.7 0.2 1 0.5 0.3-1.2-1-1.3z"/>
  <path class="cls-53" d="m25.1 2.9-0.5 1.5 0.8 1.5h1l1-1.5-0.5-1.3-0.8-0.7z"/>
  <text class="cls-54 cls-55" transform="translate(104.8 8.344)">NORIE</text>
  <text class="cls-54 cls-55" transform="translate(105.5 23.07)">SUR</text>
  <rect class="cls-56" x="94" y="12.07" width="22.7" height="7.5"/>
  <text class="cls-57 cls-54 cls-55" transform="translate(94 12.88)">PIE</text>
  <text class="cls-57 cls-54 cls-55" transform="translate(111.9 13.28)">ORIENTE</text>
  <text class="cls-57 cls-54 cls-55" transform="translate(94.6 13.88)">Y</text>
  <text class="cls-57 cls-54 cls-55" transform="translate(95.6 13.88)">E</text>
  <text class="cls-57 cls-54 cls-55" transform="translate(96.5 13.88)">N</text>
  <text class="cls-57 cls-54 cls-55" transform="translate(112.5 14.68)">N</text>
  <text class="cls-57 cls-54 cls-55" transform="translate(113.4 14.68)">O</text>
  <text class="cls-57 cls-54 cls-55" transform="translate(114.4 14.68)">R</text>
  <text class="cls-57 cls-54 cls-55" transform="translate(103.1 19.08)">O</text>
  <text class="cls-57 cls-54 cls-55" transform="translate(104.1 19.08)">K</text>
  <text class="cls-57 cls-54 cls-55" transform="translate(105 19.08)">I</text>
  <text class="cls-57 cls-54 cls-55" transform="translate(105.4 19.08)">S</text>
  <text class="cls-57 cls-54 cls-55" transform="translate(106.3 19.08)">I</text>
  <text class="cls-57 cls-54 cls-55" transform="translate(106.7 19.08)">E</text>
  <path class="cls-57" d="m96.9 13.6c2 0.8 4.7 1.8 8.7 1.8 3.5 0 6-0.5 7.8-1.8-1.8 1.3-4.3 1.8-7.8 1.8-4 0-6.7-1-8.7-1.8z"/>
  <path class="cls-57" d="m96.9 12.9c2.2-0.5 5-0.8 8.7-0.8 3 0 5.6 0.3 7.8 0.8-2.2-0.5-4.8-0.8-7.8-0.8-3.7 0-6.5 0.3-8.7 0.8z"/>
  <path class="cls-57" d="m96.9 13.6c1.5 1.5 4.5 4.5 8.7 4.5 4 0 6.8-3 7.8-4.5-1 1.5-3.8 4.5-7.8 4.5-4.2 0-7.2-3-8.7-4.5z"/>
  <text class="cls-54 cls-55" transform="translate(101 11.78)">x (km)</text>
  <text class="cls-54 cls-55" transform="translate(108.5 11.68)">y (y)</text>
  <text class="cls-54 cls-55" transform="translate(102.6 12.38)">- 1.5</text>
  <text class="cls-54 cls-55" transform="translate(107 12.38)">0</text>
  <text class="cls-54 cls-55" transform="translate(108.1 12.38)">--</text>
  <text class="cls-54 cls-55" transform="translate(105.9 15.18)">- 0.5</text>
  <text class="cls-54 cls-55" transform="translate(104.1 15.78)">0</text>
  <text class="cls-54 cls-55" transform="translate(106.5 15.98)">- 0.5</text>
  <text class="cls-54 cls-55" transform="translate(113.6 12.88)">x (m)</text>
  <text class="cls-54 cls-58" transform="matrix(0 -1 1 0 152.2 101.7)">AVENIDA DE LOS MARTÍNEZ (2 CARRILES)</text>
  <text class="cls-53 cls-54 cls-55" transform="translate(133.1 170.8)">ACCESO</text>
  <text class="cls-53 cls-54 cls-55" transform="translate(133.3 156.3)">RAU</text>
  <text class="cls-53 cls-54 cls-55" transform="translate(133.3 157.5)">VENDOZA</text>
  <path class="cls-46" d="m88.1 126.9c0 0.7 0.6 1.3 1.3 1.3s1.2-0.6 1.2-1.3-0.5-1.3-1.2-1.3-1.3 0.6-1.3 1.3"/>
  <path class="cls-2" d="m89.1 127.2h0.5v-0.5h-0.5v0.5z"/>
  <text class="cls-57 cls-54 cls-55" transform="translate(0 58.38)">ETAPA 6</text>
  <text class="cls-57 cls-54 cls-55" transform="translate(2.084 22.9)">LAPA 6</text>
  <text class="cls-1 cls-54 cls-55" transform="translate(.7583 20.2)">ESTUDIOS PARA</text>
  <text class="cls-1 cls-54 cls-55" transform="translate(.7583 22)">E. RETIRO</text>
  <text class="cls-57 cls-54 cls-55" transform="translate(18.1 25.4)">ETAPA 6</text>
  <text class="cls-1 cls-54 cls-55" transform="translate(24.23 21.3)">DEPARTAMENTOS</text>
  <text class="cls-1 cls-54 cls-55" transform="translate(24.23 23.1)">PARA TAVELINRES</text>
  <text class="cls-57 cls-54 cls-55" transform="translate(83.4 147.8)">ETAPA 2</text>
  <text class="cls-57 cls-54 cls-55" transform="translate(82.1 160.6)">ETAPA 2</text>
  <text class="cls-57 cls-54 cls-55" transform="translate(37.9 135.1)">ETAPA 5</text>
  <text class="cls-57 cls-54 cls-55" transform="translate(39.1 120.7)">ETAPA 5</text>
  <text class="cls-57 cls-54 cls-55" transform="translate(34 106.1)">ETAPA 4</text>
  <text class="cls-57 cls-54 cls-55" transform="translate(26 85.34)">ETAPA 4</text>
  <text class="cls-57 cls-54 cls-55" transform="translate(76.7 113.6)">ETAPA 1</text>
  <text class="cls-57 cls-54 cls-55" transform="translate(89.9 110.2)">ETAPA 1</text>
  <text class="cls-57 cls-54 cls-55" transform="translate(64.1 80.64)">ETAPA 5</text>
  <text class="cls-57 cls-54 cls-55" transform="translate(72.3 62.04)">ETAPA 3</text>
  <text class="cls-57 cls-54 cls-55" transform="translate(47.9 48.54)">ETAPA 4</text>
  <text class="cls-3 cls-54 cls-55" transform="translate(48.1 94.44)">CASA CUBA</text>
</svg>