<?xml version="1.0" encoding="UTF-8" standalone="no"?>
<!DOCTYPE svg PUBLIC "-//W3C//DTD SVG 1.1//EN" "http://www.w3.org/Graphics/SVG/1.1/DTD/svg11.dtd">
<svg width="100%" height="100%" viewBox="0 0 1045 1053" version="1.1" xmlns="http://www.w3.org/2000/svg" xmlns:xlink="http://www.w3.org/1999/xlink" xml:space="preserve" xmlns:serif="http://www.serif.com/" style="fill-rule:evenodd;clip-rule:evenodd;stroke-linejoin:round;stroke-miterlimit:2;">
    <g transform="matrix(1,0,0,1,-1727.818364,-6360.951271)">
        <g transform="matrix(4.166667,0,0,4.166667,0,5062.5)">
            <g transform="matrix(1,0,0,1,649.0098,434.8905)">
                <path d="M0,5.884C-1.77,6.092 -3.929,2.958 -5.973,2.954C-8.005,2.95 -10.002,4.624 -11.786,4.422C-14.588,4.105 -15.852,3.407 -16.395,2.641C-16.492,2.417 -17.994,2.898 -17.899,2.662C-17.28,1.892 -14.653,0.725 -11.902,0.407C-10.118,0.201 -8.012,-1.335 -5.982,-1.338C-3.94,-1.342 -1.992,1.606 -0.223,1.818C2.616,2.158 6.639,1.983 7.022,2.91C6.668,3.842 2.855,5.548 0,5.884M-11.604,41.496C-15.308,41.449 -16.087,40.033 -15.801,39.008C-16.003,37.968 -15.182,37.027 -11.565,37.609C-10.049,37.854 -8.019,38.688 -6.895,38.361C-5.771,38.035 -3.789,38.308 -3.788,39.184C-3.787,40.06 -8.22,41.539 -11.604,41.496M-17.916,21.946C-21.291,21.765 -23.249,21.271 -23.712,20.251C-23.79,19.99 -26.176,19.468 -26.037,19.204C-25.157,18.271 -21.523,19.288 -18.921,19.042C-17.008,18.862 -14.927,17.917 -12.925,18.045C-10.565,18.196 -8.131,18.189 -6.723,18.689C-4.015,20.177 -6.914,21.191 -10.851,21.63C-13.034,21.873 -15.552,22.072 -17.916,21.946M-19.263,62.268C-19.609,62.832 -21.056,63.813 -23.532,64.095C-24.984,64.261 -26.693,64.786 -28.439,64.843C-30.055,64.897 -31.769,64.286 -33.37,64.24C-35.138,64.189 -36.729,63.124 -38.149,62.943C-40.865,62.597 -43.397,62.115 -43.002,61.244C-42.311,60.683 -39.503,59.496 -36.666,59.247C-34.85,59.088 -32.67,62.218 -30.604,62.214C-28.543,62.21 -26.494,60.458 -24.675,60.629C-21.961,60.885 -19.564,60.923 -18.743,61.627C-18.636,61.763 -19.213,62.121 -19.263,62.268M-45.625,85.723C-47.241,85.815 -49.099,85.657 -50.695,85.492C-53.206,85.234 -56.066,84.173 -56.006,83.31C-55.657,82.379 -52.736,83.95 -50.45,83.773C-48.86,83.65 -47.373,83.208 -45.77,83.383C-43.486,83.633 -41.68,82.842 -41.235,83.565C-41.151,83.799 -39.272,83.865 -39.266,84.117C-39.467,84.872 -43.175,85.583 -45.625,85.723M-63.182,21.94C-65.371,21.809 -67.341,19.357 -69.227,19.03C-72.261,18.503 -76.163,18.473 -76.574,17.555C-76.295,16.602 -72.363,16.145 -69.139,15.996C-67.215,15.907 -65.155,18.101 -62.946,18.237C-60.748,18.374 -58.549,17.164 -56.634,17.479C-53.536,17.989 -50.523,17.531 -50.1,18.356C-50.045,18.576 -50.102,19.13 -50.244,19.312C-51.135,20.049 -53.86,21.657 -56.728,21.802C-58.662,21.899 -61.012,22.07 -63.182,21.94M-63.724,106.61C-65.318,106.784 -67.243,104.172 -69.079,104.169C-70.906,104.167 -72.705,105.563 -74.309,105.395C-76.839,105.131 -78.063,104.511 -78.563,103.86C-78.646,103.688 -79.868,104.101 -79.791,103.918C-79.272,103.269 -76.918,102.306 -74.401,102.04C-72.797,101.87 -70.913,100.591 -69.087,100.588C-67.253,100.586 -65.49,103.042 -63.896,103.217C-61.327,103.5 -57.818,103.345 -57.454,104.12C-57.784,104.895 -61.134,106.328 -63.724,106.61M-89.889,77.221C-92.893,76.905 -94.922,75.18 -94.383,74.36C-93.632,73.91 -91.638,73.381 -89.312,73.101C-87.834,72.923 -86.091,73.002 -84.284,72.903C-82.672,72.814 -80.962,73.132 -79.268,73.11C-77.571,73.089 -75.918,74.183 -74.31,74.234C-72.495,74.293 -70.746,73.121 -69.274,73.28C-66.891,73.537 -65.807,74.644 -65.165,75.19C-65.079,75.301 -63.711,74.932 -63.734,75.076C-63.983,75.586 -66.496,76.863 -69.222,77.181C-70.719,77.355 -72.572,76.821 -74.433,76.924C-76.081,77.015 -77.844,76.596 -79.577,76.624C-81.318,76.651 -83.107,78.603 -84.743,78.559C-86.625,78.508 -88.417,77.377 -89.889,77.221M-89.895,95.995C-90.185,96.685 -92.806,95.63 -96.111,95.969C-97.983,96.16 -99.948,99.547 -102.2,99.612C-104.283,99.673 -106.488,97.762 -108.547,97.707C-110.834,97.645 -113.045,97.97 -114.864,97.756C-118.559,97.32 -120.807,96.177 -119.683,95.042C-118.748,94.527 -116.741,92.219 -113.976,91.941C-112.169,91.76 -109.905,93.779 -107.763,93.718C-105.772,93.66 -103.742,94.198 -101.757,94.256C-99.61,94.319 -97.538,93.802 -95.743,94.014C-92.975,94.34 -90.514,94.313 -89.669,95.039C-89.552,95.194 -89.87,95.811 -89.895,95.995M-100.204,115.8C-103.345,115.952 -104.618,115.685 -104.183,114.637C-103.652,114.048 -102.847,112.876 -100.166,112.742C-97.576,112.613 -95.773,113.166 -95.047,113.838C-94.957,113.942 -94.015,112.829 -93.974,113.033C-94.14,113.754 -97.267,115.658 -100.204,115.8M-118.151,30.045C-119.861,30.216 -121.56,29.721 -123.295,29.571C-125.802,29.353 -128.145,30.447 -128.501,29.565C-128.575,29.251 -128.859,29.283 -128.805,28.94C-128.312,28.016 -125.782,28.125 -123.357,27.92C-121.614,27.772 -119.628,26.006 -117.918,26.186C-115.228,26.47 -111.675,28.248 -111.81,29.23C-111.779,30.264 -115.519,29.782 -118.151,30.045M-122.576,73.517C-123.135,73.778 -123.001,73.888 -123.587,74.146C-125.522,74.662 -128.288,75.169 -129.992,74.595C-132.676,73.69 -133.01,73.057 -130.165,72.183C-128.576,71.502 -127.428,71.114 -125.501,71.623C-122.739,72.352 -120.313,72.35 -122.576,73.517M-127.86,109.922C-129.5,110.405 -132.307,108.423 -134.597,108.245C-136.654,108.086 -139.229,109.794 -141.112,109.289C-143.723,108.589 -145.325,106.126 -146.083,105.166C-146.424,103.682 -143.801,105.647 -140.183,105.889C-137.934,106.04 -135.465,104.979 -133.282,105.519C-129.646,106.419 -126.29,107.252 -127.369,108.441C-127.673,108.716 -127.481,109.725 -127.86,109.922M-150.193,92.319C-152.141,92.442 -154.118,91.895 -156.08,91.692C-159.094,91.381 -161.843,92.301 -161.905,91.316C-161.88,91.007 -162.175,90.899 -161.999,90.61C-161.088,89.802 -158.435,90.158 -155.937,89.998C-154.033,89.875 -151.862,88.144 -149.999,88.376C-147.366,88.706 -143.865,89.881 -143.325,90.877C-143.092,92.014 -147.076,92.123 -150.193,92.319M-170.686,74.821C-170.956,74.633 -171.219,74.947 -171.427,74.651C-171.732,73.577 -168.821,71.554 -165.347,70.825C-163.176,70.369 -160.605,70.314 -158.384,70.245C-155.128,70.144 -152.588,70.85 -152.132,72.095C-152.266,73.054 -154.88,72.534 -158.047,73.2C-160.084,73.628 -162.09,75.438 -164.23,75.539C-166.968,75.669 -169.458,75.526 -170.686,74.821M-178.365,48.824C-177.756,48.173 -174.393,48.427 -171.705,48.028C-169.977,47.772 -167.965,48.543 -165.986,48.448C-164.013,48.354 -162.187,48.977 -160.438,49.087C-157.859,49.249 -156.501,48.812 -155.685,49.539C-155.527,49.733 -153.426,48.792 -153.39,49.061C-153.586,49.879 -156.925,52.28 -159.952,52.748C-161.764,53.029 -164.073,52.004 -166.147,52.101C-168.255,52.199 -170.429,52.664 -172.22,52.528C-175.462,52.281 -178.893,50.05 -178.365,48.824M-179.427,21.323C-181.338,21.491 -183.29,21 -185.221,20.858C-188.113,20.645 -190.742,21.712 -191.03,20.802C-191.086,20.509 -191.441,20.518 -191.344,20.195C-190.675,19.298 -187.911,19.413 -185.26,19.168C-183.335,18.989 -181.166,17.197 -179.267,17.384C-176.519,17.654 -172.857,19.029 -172.469,20.111C-172.413,21.141 -176.418,21.058 -179.427,21.323M-183.644,73.449C-185.418,73.572 -187.433,70.347 -189.467,70.259C-191.495,70.172 -193.554,71.766 -195.319,71.493C-198.134,71.059 -199.318,70.408 -199.747,69.585C-199.806,69.346 -201.316,69.548 -201.182,69.342C-200.395,68.613 -197.789,67.671 -195.126,67.476C-193.335,67.345 -191.168,65.904 -189.155,65.991C-187.118,66.079 -185.314,69.113 -183.57,69.405C-180.699,69.886 -176.677,70.007 -176.482,70.969C-176.822,71.826 -180.732,73.248 -183.644,73.449M-197.506,38.815C-199.798,38.964 -202.19,38.463 -204.481,38.317C-208.014,38.093 -211.14,39.146 -211.446,38.21C-211.5,37.951 -211.83,37.988 -211.755,37.688C-211.145,36.762 -207.771,36.836 -204.349,36.588C-201.994,36.416 -199.358,34.619 -197.05,34.799C-193.361,35.086 -189.018,37.203 -189.179,38.473C-189.496,39.39 -193.975,38.585 -197.506,38.815M-212.842,8.261C-215.936,8.027 -217.603,7.363 -218.221,6.686C-218.363,6.487 -220.971,6.91 -220.956,6.619C-220.539,5.722 -216.441,5.455 -213.371,5.07C-211.478,4.832 -209.323,4.231 -207.137,4.19C-204.968,4.15 -202.778,4.489 -200.855,4.644C-197.952,4.879 -194.063,4.241 -193.245,4.929C-192.72,6.071 -196.71,7.805 -200.174,8.243C-202.072,8.483 -204.28,8.078 -206.521,8.117C-208.72,8.155 -210.891,8.408 -212.842,8.261M-163.735,-12.062C-164.546,-11.546 -166.078,-10.29 -169.024,-9.792C-170.787,-9.493 -172.772,-8.514 -175.012,-8.248C-176.928,-8.021 -179.198,-9.948 -181.316,-9.757C-183.311,-9.578 -185.316,-9.096 -187.375,-8.959C-189.43,-8.823 -191.412,-7.405 -193.418,-7.322C-195.541,-7.234 -197.616,-6.968 -199.554,-6.952C-201.8,-6.933 -203.834,-8.493 -205.638,-8.589C-208.429,-8.736 -210.586,-8.388 -211.683,-8.865C-211.726,-8.88 -211.013,-8.862 -211.067,-8.832C-211.119,-8.796 -210.983,-8.804 -211.03,-8.769C-211.292,-8.506 -213.032,-8.736 -213.04,-8.83C-213.027,-8.978 -212.674,-10.019 -212.34,-10.273C-212.282,-10.331 -211.578,-9.531 -211.524,-9.56C-210.544,-10.248 -208.633,-11.332 -206.175,-11.736C-204.402,-12.028 -202.369,-13.293 -200.079,-13.56C-198.135,-13.786 -195.661,-10.31 -193.506,-10.505C-191.478,-10.687 -189.476,-11.638 -187.387,-11.781C-185.294,-11.925 -183.246,-12.628 -181.215,-12.721C-179.045,-12.822 -176.929,-11.494 -174.976,-11.525C-172.653,-11.561 -170.561,-13.183 -168.781,-13.1C-165.032,-12.926 -163.329,-12.916 -163.735,-12.062M-124.363,44.759C-125.056,45.499 -128.538,45.094 -131.296,45.157C-133.092,45.198 -135.036,44.161 -137.059,43.979C-139.093,43.796 -140.875,42.914 -142.621,42.557C-145.488,41.972 -146.818,42.634 -147.063,41.762C-147.065,41.511 -149.105,40.788 -148.946,40.605C-148.04,39.939 -144.93,38.907 -142.279,38.827C-140.455,38.773 -138.329,40.085 -136.306,40.259C-134.24,40.436 -132.064,40.264 -130.331,40.637C-127.3,41.289 -124.074,43.692 -124.363,44.759M-135.512,11.529C-137.583,11.896 -140.115,11.601 -142.493,11.807C-144.901,12.016 -147.354,12.181 -149.425,12.146C-153.216,12.082 -156.115,10.896 -155.671,9.636C-155.084,8.892 -152.37,8.476 -149.184,7.914C-147.19,7.562 -144.816,8.567 -142.522,8.376C-140.235,8.185 -138.059,6.561 -136.022,6.598C-132.999,6.652 -131.304,7.922 -130.327,8.663C-130.169,8.819 -127.472,7.526 -127.393,7.764C-127.436,8.571 -131.906,10.89 -135.512,11.529M-98.827,9.634C-99.18,10.665 -102.62,8.671 -105.485,8.737C-107.423,8.781 -109.474,10.413 -111.391,10.102C-114.222,9.644 -115.485,9.131 -115.71,8.09C-115.7,7.776 -117.06,7.75 -116.879,7.513C-115.922,6.69 -113.34,6.393 -110.812,6.377C-108.867,6.365 -106.408,4.684 -104.552,5.009C-101.553,5.533 -98.567,8.651 -98.827,9.634M-77.222,-0.003C-79.73,-0.22 -80.884,-0.638 -81.241,-1.519C-81.314,-1.834 -83.834,-1.903 -83.781,-2.247C-83.288,-3.17 -79.616,-2.611 -77.191,-2.817C-75.448,-2.964 -73.544,-3.87 -71.834,-3.69C-69.144,-3.406 -66.421,-2.492 -66.555,-1.51C-66.526,-0.476 -69.301,-0.43 -71.934,-0.167C-73.643,0.004 -75.487,0.148 -77.222,-0.003M-87.208,57.335C-87.793,58.593 -92.313,58.684 -95.361,58.639C-98.751,58.589 -101.052,57.915 -100.744,56.644C-100.976,55.354 -98.684,56.217 -95.329,56.171C-92.281,56.129 -90.267,55.432 -89.692,56.683C-89.595,57.008 -87.14,56.995 -87.208,57.335M-90.79,40.27C-90.338,39.515 -87.149,39.273 -84.596,39.094C-82.989,38.981 -81.189,39.768 -79.352,39.842C-77.52,39.916 -75.849,40.586 -74.251,40.815C-71.683,41.182 -70.377,40.787 -69.964,41.448C-69.901,41.628 -68.125,41.826 -68.227,41.993C-68.864,42.623 -71.667,43.732 -74.137,43.902C-75.754,44.014 -77.689,43 -79.515,42.932C-81.354,42.864 -83.273,43.096 -84.86,42.859C-87.459,42.47 -90.522,41.06 -90.79,40.27M-53.503,7.425C-53.6,7.202 -54.193,6.948 -54.098,6.712C-53.479,5.942 -50.798,4.384 -48.047,4.066C-46.263,3.86 -44.1,4.486 -42.07,4.482C-40.028,4.479 -38.082,5.722 -36.312,5.934C-33.474,6.273 -30.197,6.121 -29.814,7.049C-30.168,7.98 -33.179,10.154 -36.034,10.49C-37.805,10.699 -40.019,6.941 -42.063,6.937C-44.096,6.933 -46.124,9.023 -47.907,8.821C-50.71,8.504 -52.96,8.191 -53.503,7.425M-49.385,37.901C-47.933,37.709 -46.055,39.044 -44.304,38.951C-42.682,38.865 -40.995,37.436 -39.388,37.448C-37.609,37.462 -35.993,39.494 -34.57,39.644C-31.782,39.939 -29.817,40.031 -30.404,40.949C-31.059,41.498 -33.368,42.354 -36.205,42.646C-38.011,42.832 -40.128,41.958 -42.18,42.004C-44.235,42.049 -46.182,41.078 -47.989,40.954C-50.8,40.761 -53.333,42.033 -54.002,41.34C-54.097,41.2 -53.773,40.725 -53.76,40.547C-53.512,39.978 -51.919,38.236 -49.385,37.901M-108.904,-113.413C-99.698,-113.413 -90.818,-111.379 -82.159,-109.276C-73.296,-107.122 -64.466,-104.832 -56.475,-100.733C-48.407,-96.593 -41.448,-90.68 -34.579,-84.823C-27.707,-78.965 -21.635,-72.393 -16.274,-65.084C-10.959,-57.839 -5.904,-50.341 -2.377,-41.934C1.071,-33.713 4.185,-24.468 5.636,-15.383C-6.285,-11.16 -18.232,-15.985 -30.379,-19.904C-39.352,-22.8 -48.776,-24.519 -58.07,-23.848C-67.18,-23.195 -77.759,-22.106 -88.279,-18.966C-90.955,-18.168 -93.514,-17.217 -96.037,-16.352C-103.397,-13.834 -110.594,-11.508 -118.82,-11.438C-131.691,-11.29 -143.978,-15.65 -155.62,-19.967C-163.487,-22.886 -171.316,-26.724 -179.721,-28.379C-185.118,-29.44 -190.366,-29.794 -195.385,-29.794C-205.039,-29.794 -214.154,-27.669 -221.472,-23.868C-219.466,-32.346 -215.459,-40.423 -211.725,-48.016C-207.911,-55.772 -204.134,-63.483 -198.773,-70.107C-193.365,-76.788 -187.008,-82.604 -180.291,-87.916C-173.58,-93.224 -166.208,-97.554 -158.454,-101.279C-150.781,-104.965 -142.961,-108.712 -134.525,-110.636C-126.287,-112.515 -117.629,-113.413 -108.904,-113.413M-108.904,-123.261C-117.316,-123.261 -125.639,-123.359 -133.594,-121.78C-141.785,-120.153 -149.419,-116.809 -156.959,-113.675C-164.625,-110.488 -172.413,-107.471 -179.23,-102.901C-186.098,-98.297 -192.605,-92.991 -198.431,-87.165C-204.256,-81.339 -209.025,-74.472 -213.628,-67.604C-218.198,-60.787 -221.409,-53.217 -224.596,-45.551C-227.73,-38.011 -231.535,-30.543 -233.161,-22.353C-234.74,-14.398 -234.267,-6.052 -234.267,2.36C-234.267,10.772 -233.425,18.857 -231.846,26.812C-230.22,35.003 -227.772,42.749 -224.638,50.289C-221.451,57.956 -217.678,65.16 -213.108,71.978C-208.505,78.845 -203.184,84.989 -197.358,90.815C-191.532,96.641 -185.761,102.518 -178.894,107.121C-172.076,111.691 -164.727,115.455 -157.06,118.642C-149.521,121.776 -141.589,123.892 -133.399,125.518C-125.444,127.097 -117.316,129.243 -108.904,129.243C-100.492,129.243 -92.3,127.422 -84.345,125.843C-76.154,124.216 -68.149,122.108 -60.609,118.974C-52.943,115.787 -45.49,112.051 -38.672,107.481C-31.805,102.878 -26.017,96.898 -20.191,91.072C-14.365,85.246 -8.264,79.54 -3.661,72.673C0.909,65.855 5.027,58.53 8.214,50.863C11.348,43.324 13.416,35.201 15.042,27.011C16.622,19.056 16.286,10.772 16.286,2.36C16.286,-6.052 15.723,-14.158 14.144,-22.113C12.518,-30.304 10.475,-38.242 7.341,-45.782C4.154,-53.449 0.476,-60.846 -4.094,-67.664C-8.697,-74.532 -13.547,-81.347 -19.373,-87.173C-25.198,-92.999 -31.801,-98.165 -38.669,-102.769C-45.487,-107.338 -52.686,-111.689 -60.352,-114.875C-67.892,-118.009 -76.265,-118.943 -84.455,-120.569C-92.41,-122.148 -100.493,-123.261 -108.904,-123.261" style="fill:white;fill-rule:nonzero;"/>
            </g>
        </g>
    </g>
</svg>
