<?xml version="1.0" encoding="UTF-8" standalone="no"?>
<!DOCTYPE svg PUBLIC "-//W3C//DTD SVG 1.1//EN" "http://www.w3.org/Graphics/SVG/1.1/DTD/svg11.dtd">
<svg width="100%" height="100%" viewBox="0 0 1520 1150" version="1.1" xmlns="http://www.w3.org/2000/svg" xmlns:xlink="http://www.w3.org/1999/xlink" xml:space="preserve" xmlns:serif="http://www.serif.com/" style="fill-rule:evenodd;clip-rule:evenodd;stroke-linejoin:round;stroke-miterlimit:2;">
    <g transform="matrix(1,0,0,1,-6552.879015,-1249.957029)">
        <g transform="matrix(4.166667,0,0,4.166667,5062.5,0)">
            <g transform="matrix(1,0,0,1,688.9029,346.3938)">
                <path d="M0,31.059C-0.541,30.122 -1.873,29.649 -2.883,29.058C-4.222,28.29 -5.931,27.039 -8.005,25.992C-9.703,25.135 -11.572,24.288 -13.353,23.331C-15.191,22.343 -17.046,21.443 -18.574,20.433C-20.686,19.037 -22.173,17.561 -22.768,16.32C-24.109,13.877 -21.392,12.482 -19.558,11.474C-18.161,10.708 -16.343,9.647 -14.301,8.598C-12.59,7.719 -10.788,6.73 -9.024,5.761C-7.166,4.739 -5.384,3.719 -3.883,2.708C-1.597,1.169 0.215,-0.15 0.429,-1.332C0.402,-3.447 -1.714,-3.854 -3.983,-3.636C-6.027,-3.44 -8.272,-2.737 -9.459,-2.496C-11.208,-2.145 -13.525,-1.477 -15.932,-0.963C-18.201,-0.478 -20.552,-0.171 -22.526,-0.093C-25.506,0.025 -27.635,-0.585 -27.503,-2.926C-27.294,-4.241 -26.507,-5.688 -25.682,-6.819C-24.523,-8.36 -22.824,-10.39 -21.113,-12.582C-19.591,-14.531 -17.633,-16.309 -16.359,-18.222C-14.488,-21.032 -13.29,-23.739 -13.672,-25.086C-14.102,-26.907 -17.226,-26.27 -18.985,-25.074C-20.574,-24.08 -22.774,-22.868 -24.884,-21.322C-26.782,-19.932 -28.549,-18.182 -30.409,-17.035C-33.003,-15.436 -35.41,-14.505 -36.918,-14.902C-38.55,-15.436 -38.448,-17.425 -38.103,-19.612C-37.798,-21.549 -37.363,-23.642 -37.241,-24.914C-36.802,-27.211 -36.385,-29.645 -36.121,-31.877C-35.772,-34.837 -35.824,-37.39 -36.256,-38.84C-36.826,-40.75 -37.991,-40.587 -40.999,-36.68C-42.284,-35.051 -43.735,-33.44 -44.861,-31.69C-45.699,-30.622 -46.705,-28.351 -47.956,-26.427C-49.324,-24.324 -50.84,-22.709 -52.529,-23.2C-53.858,-23.868 -54.449,-26.022 -54.999,-28.761C-55.4,-30.759 -55.895,-32.974 -56.127,-35.091C-56.41,-37.676 -56.835,-39.998 -57.208,-41.39C-57.759,-43.596 -57.859,-46.042 -59.918,-46.402C-61.229,-46.461 -62.63,-45.282 -63.161,-43.17C-63.58,-41.257 -63.813,-39.254 -64.126,-37.278C-64.436,-35.314 -64.374,-33.283 -64.718,-31.346C-65.372,-27.553 -65.846,-25.075 -66.806,-23.757C-68.523,-21.909 -70.208,-23.602 -71.959,-25.861C-73.497,-27.846 -74.854,-30.323 -75.622,-31.532C-76.447,-32.791 -78.016,-34.834 -79.279,-36.775C-80.747,-39.028 -82.185,-40.864 -83.995,-39.635C-84.933,-38.776 -84.686,-36.434 -84.332,-33.515C-84.094,-31.548 -83.862,-29.333 -83.417,-27.208C-82.933,-24.904 -82.478,-22.679 -82.124,-20.956C-81.419,-17.917 -81.81,-16.307 -82.612,-15.504C-83.648,-14.466 -85.622,-14.689 -87.961,-15.861C-89.529,-16.647 -90.993,-18.128 -92.636,-19.267C-94.333,-20.443 -96.235,-21.284 -97.567,-22.28C-98.609,-23.014 -100.045,-24.759 -101.706,-25.654C-103.573,-26.66 -105.573,-26.84 -106.516,-25.097C-106.954,-23.771 -105.538,-21.367 -103.662,-18.534C-102.393,-16.618 -100.993,-14.445 -99.469,-12.489C-97.763,-10.298 -95.908,-8.393 -94.743,-6.847C-93.399,-5.125 -91.498,-1.769 -94.147,-0.336C-95.072,0.391 -97.325,0.188 -100.069,-0.286C-101.854,-0.594 -103.811,-1.329 -105.868,-1.806C-107.843,-2.265 -109.865,-2.719 -111.735,-3.091C-114.035,-3.549 -116.179,-3.772 -117.734,-3.7C-120.182,-3.587 -121.08,-2.506 -119.614,0.329C-119.004,1.138 -118.353,2.103 -117.399,2.644C-116.045,3.403 -114,3.906 -111.997,4.917C-110.329,5.759 -108.659,6.905 -106.921,7.841C-105.123,8.809 -103.39,9.829 -101.891,10.818C-99.846,12.167 -98.387,13.576 -97.735,14.784C-96.241,17.229 -99.01,18.409 -100.893,19.419C-102.286,20.188 -103.959,21.558 -106.027,22.62C-107.749,23.504 -109.608,24.423 -111.386,25.4C-113.259,26.429 -115.164,27.308 -116.675,28.326C-118.994,29.889 -120.591,31.443 -120.756,32.633C-120.657,34.703 -118.632,35.103 -116.384,34.881C-114.356,34.681 -112.139,33.96 -110.943,33.72C-109.195,33.369 -106.865,32.761 -104.458,32.246C-102.189,31.761 -99.85,31.366 -97.876,31.288C-94.896,31.171 -92.997,31.795 -93.129,34.137C-93.337,35.451 -93.927,36.896 -94.751,38.027C-95.91,39.568 -97.86,41.401 -99.571,43.593C-101.093,45.542 -102.646,47.623 -103.92,49.536C-105.791,52.346 -106.865,54.907 -106.482,56.254C-106.052,58.075 -102.97,57.815 -101.211,56.619C-99.622,55.625 -97.692,54.01 -95.583,52.465C-93.685,51.074 -91.763,49.559 -89.903,48.412C-87.309,46.812 -85.063,45.978 -83.555,46.374C-81.923,46.909 -82.049,48.641 -82.394,50.829C-82.7,52.765 -82.855,54.903 -82.977,56.175C-83.416,58.472 -83.774,60.905 -84.038,63.138C-84.387,66.097 -84.497,68.598 -84.064,70.048C-83.494,71.957 -82.332,71.88 -79.323,67.973C-78.039,66.343 -76.76,64.606 -75.635,62.856C-74.797,61.788 -73.465,59.733 -72.214,57.809C-70.847,55.705 -69.516,53.823 -67.827,54.314C-66.498,54.982 -65.729,57.208 -65.179,59.948C-64.778,61.946 -64.173,64.169 -63.941,66.287C-63.658,68.872 -63.692,71.262 -63.32,72.654C-62.768,74.86 -62.52,77.101 -60.462,77.46C-59.15,77.52 -58.131,76.429 -57.6,74.317C-57.182,72.404 -56.986,70.422 -56.674,68.447C-56.364,66.483 -55.575,64.594 -55.231,62.657C-54.577,58.863 -54.48,56.369 -53.52,55.052C-51.805,53.204 -50.073,54.74 -48.322,56.999C-46.783,58.984 -45.346,61.425 -44.578,62.634C-43.754,63.893 -42.39,66.068 -41.126,68.009C-39.658,70.263 -38.287,72.003 -36.477,70.773C-35.539,69.914 -35.272,67.612 -35.626,64.693C-35.865,62.726 -36.647,60.588 -37.093,58.463C-37.577,56.159 -37.595,53.838 -37.949,52.115C-38.654,49.076 -38.881,47.249 -38.079,46.445C-37.044,45.408 -34.816,45.994 -32.477,47.166C-30.909,47.952 -29.265,49.154 -27.622,50.292C-25.925,51.469 -24.223,52.594 -22.891,53.589C-21.849,54.324 -20.131,55.573 -18.47,56.468C-16.603,57.474 -15.026,57.983 -14.083,56.239C-13.646,54.919 -14.598,52.449 -16.461,49.63C-17.72,47.726 -19.555,45.882 -21.072,43.934C-22.76,41.764 -24.153,39.529 -25.326,37.98C-26.163,36.846 -26.931,35.537 -27.16,34.207C-27.344,31.748 -25.704,30.81 -22.807,30.942C-20.974,31.025 -18.817,31.949 -16.484,32.477C-14.401,32.948 -12.202,33.376 -10.146,33.855C-7.758,34.411 -5.482,34.443 -3.717,34.534C-0.833,34.684 1.062,34.103 0.057,31.209C0.017,31.049 0.02,31.093 0,31.059" style="fill:white;fill-rule:nonzero;"/>
            </g>
        </g>
        <g transform="matrix(4.166667,0,0,4.166667,5062.5,0)">
            <g transform="matrix(1,0,0,1,578.994,482.551)">
                <path d="M0,9.7C1.827,9.787 3.629,9.843 5.457,10.268C7.242,10.683 9.294,10.186 11.088,10.671C12.882,11.156 14.53,12.043 16.34,12.349C18.17,12.658 19.895,12.514 21.75,12.384C23.675,12.192 25.688,12.759 27.56,12.321C29.44,11.88 31.405,11.764 33.262,11.296C35.144,10.822 36.841,9.648 38.731,9.376C40.632,9.102 42.567,8.897 44.508,9.062C46.345,9.217 48.365,9.235 50.266,9.988C52.986,10.694 55.533,12.563 58.344,12.704C60.154,12.798 62.108,12.754 63.891,12.454C65.656,12.158 67.073,10.154 68.829,9.695C70.574,9.239 72.708,10.352 74.461,9.954C76.229,9.552 77.807,8.152 79.599,8.032C81.374,7.914 83.13,8.611 84.944,8.988C87.313,9.313 89.646,10.029 92.023,10.408C94.401,10.787 96.882,10.594 99.294,10.475C101.333,10.43 103.265,9.717 105.248,9.227C107.215,8.74 109.098,7.947 111.045,7.362C113.012,6.772 115.051,6.326 117.032,5.983C119.034,5.636 121.181,5.063 123.235,5.328C125.26,5.446 127.17,6.697 129.067,7.484C130.917,8.251 132.696,9.29 134.535,10.133C136.402,10.988 138.395,10.957 140.364,11.317C144.417,11.821 143.703,8.922 141.743,6.879C140.344,5.393 139.082,3.651 137.352,2.506C135.646,1.378 133.738,0.411 131.822,-0.359C129.911,-1.128 127.976,-2.316 125.966,-2.704C123.924,-3.098 121.689,-2.231 119.659,-2.205C117.793,-2.164 115.92,-2.161 114.102,-1.721C112.302,-1.285 110.607,-0.407 108.828,0.15C107.039,0.709 105.075,0.536 103.28,0.945C101.452,1.361 99.742,2.46 97.879,2.434C95.633,2.473 93.496,1.413 91.284,1.039C89.082,0.666 86.916,0.012 84.714,-0.272C82.729,-0.653 80.64,-0.361 78.715,-0.201C76.767,-0.038 74.952,1.039 73.034,1.491C71.131,1.94 69.115,1.966 67.211,2.436C65.303,2.908 63.329,2.645 61.389,2.876C59.654,3.066 58.121,3.145 56.396,2.88C54.699,2.619 52.899,2.884 51.205,2.458C49.516,2.034 47.865,1.403 46.17,1.086C44.454,0.764 42.724,1.652 40.994,1.718C39.239,1.733 37.305,0.228 35.603,0.615C33.912,0.999 32.415,2.296 30.74,2.796C29.065,3.296 27.33,3.494 25.635,3.862C23.934,4.231 22.284,4.282 20.526,4.265C18.735,4.308 16.735,5.512 14.921,5.12C13.167,4.741 11.444,3.873 9.681,3.368C7.918,2.863 6.211,2.314 4.452,1.959C2.638,1.593 0.978,1.781 -0.819,1.873C-2.588,1.962 -4.262,1.7 -6,2.524C-7.819,3.447 -9.517,4.283 -9.842,5.437C-10.264,6.941 -8.948,8.629 -6.8,8.971C-3.428,9.523 -2.115,9.555 0,9.7" style="fill:white;fill-rule:nonzero;"/>
            </g>
        </g>
        <g transform="matrix(4.166667,0,0,4.166667,5062.5,0)">
            <g transform="matrix(1,0,0,1,579.0718,506.9791)">
                <path d="M0,6.106C1.827,6.193 3.772,6.621 5.599,7.045C7.385,7.46 9.199,7.975 10.993,8.46C12.787,8.945 14.516,9.394 16.326,9.7C18.156,10.009 19.826,10.34 21.68,10.211C23.606,10.019 25.406,9.612 27.277,9.174C29.157,8.733 31.216,9.048 33.072,8.58C34.954,8.106 36.656,6.627 38.546,6.355C40.446,6.081 42.419,7.45 44.36,7.614C46.197,7.77 48.103,7.545 50.005,8.298C52.724,9.004 55.49,9.606 58.301,9.747C60.111,9.841 62,10.305 63.784,10.006C65.549,9.71 67.07,8.165 68.825,7.707C70.571,7.251 72.25,6.402 74.003,6.004C75.771,5.603 77.7,5.45 79.492,5.331C81.268,5.213 83.251,5.151 85.065,5.528C87.435,5.853 89.556,7.835 91.932,8.214C94.311,8.593 96.819,8.74 99.231,8.621C101.27,8.576 103.172,7.383 105.155,6.893C107.123,6.406 109.195,6.255 111.142,5.67C113.108,5.08 115.102,4.798 117.083,4.455C119.085,4.108 121.092,2.917 123.145,3.181C125.17,3.299 126.972,4.715 128.869,5.501C130.719,6.269 132.336,7.631 134.176,8.474C136.042,9.329 138.118,10.072 140.087,10.431C144.14,10.935 143.101,7.148 141.14,5.105C139.741,3.619 139.21,1.066 137.48,-0.079C135.774,-1.207 133.749,-2.084 131.834,-2.855C129.922,-3.624 127.794,-4.047 125.783,-4.435C123.741,-4.829 121.612,-4.438 119.583,-4.412C117.716,-4.371 116.041,-3.61 114.224,-3.17C112.424,-2.734 110.337,-3.295 108.558,-2.738C106.769,-2.178 105.042,-1.54 103.247,-1.131C101.419,-0.715 99.663,-0.289 97.799,-0.314C95.554,-0.275 93.405,-0.783 91.193,-1.158C88.992,-1.53 86.723,-1.536 84.521,-1.82C82.536,-2.201 80.66,-1.466 78.735,-1.305C76.787,-1.142 74.949,-0.919 73.031,-0.467C71.128,-0.018 69.249,0.548 67.344,1.019C65.436,1.49 63.277,0.594 61.337,0.825C59.602,1.015 57.942,1.528 56.217,1.263C54.521,1.002 53.01,-0.14 51.315,-0.566C49.627,-0.99 47.849,-1.2 46.154,-1.518C44.438,-1.839 42.636,-1.079 40.906,-1.013C39.15,-0.997 37.353,-1.491 35.651,-1.105C33.96,-0.721 32.352,0.073 30.677,0.573C29.003,1.073 27.223,1.088 25.529,1.456C23.827,1.825 22.209,2.314 20.45,2.297C18.659,2.34 16.684,3.114 14.87,2.722C13.116,2.343 11.427,1.384 9.665,0.879C7.902,0.374 6.107,0.172 4.348,-0.183C2.533,-0.549 0.839,-1.696 -0.958,-1.605C-2.727,-1.515 -4.777,-1.465 -6.516,-0.641C-8.335,0.282 -9.04,2.166 -9.364,3.319C-9.787,4.823 -9,6.012 -6.852,6.355C-3.418,6.251 -2.115,5.961 0,6.106" style="fill:white;fill-rule:nonzero;"/>
            </g>
        </g>
        <g transform="matrix(4.166667,0,0,4.166667,5062.5,0)">
            <g transform="matrix(1,0,0,1,579.0157,527.5857)">
                <path d="M0,8.604C1.827,8.691 3.65,8.935 5.477,9.36C7.263,9.775 9.188,9.774 10.982,10.259C12.775,10.744 14.419,11.847 16.229,12.153C18.059,12.462 19.878,11.84 21.732,11.71C23.658,11.518 25.48,11.239 27.352,10.801C29.232,10.36 31.34,10.868 33.197,10.4C35.079,9.926 36.941,9.763 38.83,9.491C40.731,9.217 42.556,8.037 44.497,8.201C46.334,8.357 47.905,9.897 49.807,10.65C52.526,11.356 55.538,11.312 58.349,11.453C60.159,11.547 62.079,11.986 63.862,11.686C65.627,11.39 67.2,9.998 68.956,9.54C70.701,9.084 72.577,9.143 74.329,8.745C76.098,8.343 77.824,8.013 79.616,7.894C81.391,7.775 83.013,8.454 84.827,8.831C87.196,9.156 89.724,8.678 92.101,9.057C94.479,9.436 96.891,10.709 99.303,10.591C101.342,10.546 103.099,8.41 105.082,7.919C107.05,7.433 109.294,7.945 111.241,7.36C113.207,6.769 115.033,5.623 117.014,5.28C119.016,4.933 121.056,5.445 123.109,5.71C125.134,5.828 127.433,5.286 129.33,6.073C131.18,6.84 132.348,9.276 134.187,10.119C136.054,10.974 138.175,11.616 140.144,11.975C144.196,12.479 143.275,8.583 141.315,6.541C139.915,5.055 138.573,3.661 136.843,2.517C135.137,1.388 133.751,-0.4 131.835,-1.17C129.923,-1.94 127.719,-1.819 125.708,-2.207C123.666,-2.601 121.651,-3.875 119.622,-3.849C117.755,-3.808 115.933,-2.74 114.116,-2.3C112.316,-1.865 110.253,-2.195 108.474,-1.639C106.685,-1.079 105.021,-0.33 103.226,0.079C101.399,0.495 99.719,1.117 97.855,1.091C95.609,1.13 93.481,0.643 91.269,0.269C89.068,-0.104 86.79,-0.057 84.588,-0.341C82.603,-0.722 80.677,-0.392 78.751,-0.231C76.803,-0.068 74.936,0.336 73.018,0.788C71.115,1.237 69.048,1.057 67.144,1.528C65.236,1.999 63.401,2.736 61.461,2.968C59.726,3.158 57.997,3.087 56.271,2.822C54.575,2.561 53.106,1.249 51.411,0.823C49.723,0.399 47.865,0.559 46.171,0.241C44.455,-0.081 42.679,-0.066 40.949,0C39.194,0.015 37.612,0.948 35.91,1.334C34.218,1.718 32.271,1.161 30.596,1.661C28.921,2.161 27.476,3.542 25.781,3.909C24.079,4.278 22.272,4.766 20.513,4.75C18.722,4.792 16.851,4.152 15.037,3.76C13.283,3.381 11.499,2.878 9.736,2.374C7.973,1.869 6.408,0.505 4.649,0.15C2.835,-0.217 0.956,1.061 -0.841,1.152C-2.609,1.242 -4.528,0.476 -6.266,1.3C-8.086,2.224 -8.245,3.921 -8.569,5.075C-8.992,6.579 -9.013,8.395 -6.865,8.737C-3.478,9.106 -2.115,8.458 0,8.604" style="fill:white;fill-rule:nonzero;"/>
            </g>
        </g>
        <g transform="matrix(4.166667,0,0,4.166667,5062.5,0)">
            <g transform="matrix(1,0,0,1,578.9796,549.3945)">
                <path d="M0,9.564C1.827,9.651 3.677,9.316 5.505,9.741C7.291,10.156 9.329,9.729 11.123,10.214C12.917,10.699 14.505,11.896 16.315,12.202C18.145,12.511 19.971,12.859 21.826,12.729C23.751,12.537 25.474,11.404 27.346,10.966C29.226,10.525 31.033,9.85 32.89,9.382C34.772,8.908 36.769,8.664 38.658,8.392C40.559,8.118 42.594,8.367 44.535,8.532C46.372,8.687 48.369,8.887 50.271,9.64C52.99,10.345 55.612,10.91 58.423,11.051C60.233,11.145 62.081,12.129 63.864,11.829C65.629,11.533 67.157,10.038 68.912,9.58C70.658,9.124 72.456,8.797 74.209,8.399C75.977,7.998 77.838,8.018 79.63,7.898C81.405,7.78 83.156,8.159 84.971,8.536C87.34,8.861 89.605,9.998 91.982,10.377C94.36,10.756 96.907,10.508 99.319,10.389C101.358,10.344 103.232,9.146 105.215,8.656C107.183,8.169 109.399,8.522 111.346,7.937C113.313,7.347 115.255,7.039 117.236,6.696C119.237,6.349 121.135,5.334 123.188,5.598C125.213,5.717 127.049,6.644 128.946,7.43C130.796,8.197 132.421,9.542 134.26,10.384C136.127,11.24 138.216,11.928 140.185,12.287C144.237,12.791 143.632,8.623 141.672,6.581C140.273,5.095 139.012,3.398 137.282,2.253C135.577,1.125 133.407,0.891 131.491,0.12C129.579,-0.649 127.792,-1.666 125.781,-2.054C123.74,-2.447 121.716,-1.872 119.686,-1.846C117.82,-1.805 115.751,-3.295 113.934,-2.856C112.134,-2.42 110.729,-0.445 108.949,0.112C107.161,0.672 105.329,1.208 103.534,1.617C101.706,2.033 99.759,2.697 97.895,2.672C95.65,2.711 93.485,1.18 91.273,0.806C89.072,0.433 86.828,0.276 84.627,-0.008C82.641,-0.389 80.692,-0.301 78.766,-0.14C76.818,0.023 75.018,0.877 73.1,1.329C71.197,1.778 69.069,1.339 67.164,1.81C65.256,2.281 63.508,3.696 61.568,3.928C59.832,4.118 57.919,4.171 56.194,3.906C54.498,3.645 52.715,3.293 51.021,2.867C49.332,2.443 47.929,0.759 46.234,0.441C44.518,0.119 42.697,-0.501 40.967,-0.435C39.212,-0.42 37.373,0.082 35.671,0.469C33.98,0.853 32.622,2.563 30.948,3.063C29.273,3.563 27.596,4.275 25.901,4.642C24.2,5.011 22.308,5.182 20.55,5.166C18.759,5.208 16.79,4.945 14.976,4.553C13.222,4.174 11.415,3.644 9.652,3.14C7.889,2.635 6.219,1.968 4.46,1.613C2.646,1.246 0.976,1.094 -0.82,1.185C-2.589,1.275 -4.484,0.838 -6.222,1.662C-8.042,2.586 -8.221,4.264 -8.545,5.418C-8.967,6.921 -9.035,8.722 -6.887,9.064C-3.523,9.737 -2.115,9.419 0,9.564" style="fill:white;fill-rule:nonzero;"/>
            </g>
        </g>
        <g transform="matrix(4.166667,0,0,4.166667,5062.5,0)">
            <g transform="matrix(1,0,0,1,543.1265,524.2805)">
                <path d="M0,-77.28C-12.036,-77.259 -25.889,-76.693 -40.314,-76.687C-53.595,-76.681 -67.363,-76.691 -80.645,-76.697C-95.076,-76.703 -108.934,-77.244 -120.974,-77.265C-143.442,-77.304 -159.251,-77.077 -160.962,-77.165C-148.191,-81.87 -137.729,-87.366 -128.16,-91.105C-114.557,-96.42 -103.743,-100.54 -94.885,-103.931C-79.654,-109.761 -69.827,-111.721 -60.485,-111.989C-51.141,-111.721 -41.203,-110.045 -25.966,-104.212C-17.11,-100.822 -6.263,-96.786 7.336,-91.472C16.904,-87.733 27.606,-82.757 40.376,-78.053C38.665,-77.964 22.47,-77.319 0,-77.28M63.37,-82.316C52.097,-87.973 38.169,-92.166 24.136,-97.426C11.191,-102.278 -2.255,-107.203 -15.312,-111.783C-29.456,-116.746 -42.643,-122.562 -54.293,-127.284C-58.617,-129.167 -60.857,-127.745 -66.168,-126.007C-77.818,-121.285 -91.305,-116.144 -105.45,-111.182C-118.506,-106.601 -132.309,-102.667 -145.254,-97.814C-159.286,-92.554 -172.458,-86.859 -183.729,-81.202C-188.654,-77.983 -181.799,-72.534 -177.304,-71.176C-176.009,-70.823 -175.679,-70.912 -175.576,-58.244C-175.491,-47.723 -176.16,-36.39 -176.346,-25.154C-176.535,-13.736 -178.019,-2.418 -178.108,7.909C-178.223,21.274 -176.833,32.914 -176.045,40.91C-175.516,46.283 -171.8,50.61 -166.439,51.251C-161.676,51.82 -156.105,49.795 -149.98,50.277C-131.219,50.083 -111.252,51.42 -98.588,50.883C-87.226,49.533 -89.403,34.134 -89.026,18.121C-88.718,5 -86.414,-7.971 -74.328,-13.967C-70.309,-15.735 -65.536,-16.692 -60.485,-16.799C-55.434,-16.692 -50.206,-16.679 -46.187,-14.911C-34.101,-8.915 -33.458,5.028 -33.15,18.15C-32.773,34.163 -33.78,50 -22.418,51.35C-9.755,51.887 10.257,50.706 29.017,50.9C35.142,50.417 40.707,51.828 45.47,51.258C50.831,50.617 54.242,46.253 54.771,40.88C55.558,32.884 56.269,21.284 56.154,7.92C56.064,-2.405 55.954,-13.736 55.765,-25.152C55.579,-36.389 55.429,-47.711 55.515,-58.234C55.618,-70.903 55.661,-70.805 56.347,-71.169C60.842,-72.527 68.294,-79.097 63.37,-82.316" style="fill:white;fill-rule:nonzero;"/>
            </g>
        </g>
    </g>
</svg>
