<?xml version="1.0" encoding="UTF-8" standalone="no"?>
<!DOCTYPE svg PUBLIC "-//W3C//DTD SVG 1.1//EN" "http://www.w3.org/Graphics/SVG/1.1/DTD/svg11.dtd">
<svg width="100%" height="100%" viewBox="0 0 1029 1047" version="1.1" xmlns="http://www.w3.org/2000/svg" xmlns:xlink="http://www.w3.org/1999/xlink" xml:space="preserve" xmlns:serif="http://www.serif.com/" style="fill-rule:evenodd;clip-rule:evenodd;stroke-linejoin:round;stroke-miterlimit:2;">
    <g transform="matrix(1,0,0,1,-1735.778045,-1301.136216)">
        <g transform="matrix(4.166667,0,0,4.166667,0,0)">
            <g transform="matrix(1,0,0,1,662.5981,311.0274)">
                <path d="M0,149.33C-3.058,146.998 -7.195,145.804 -11.039,144.537C-23.141,140.753 -39.984,136.424 -51.206,132.371C-62.071,128.649 -53.861,124.177 -48.349,120.277C-38.891,114.223 -22.649,104.123 -13.01,97.972C-10.821,96.381 -2.663,91.553 -5.024,89.499C-7.976,88.419 -11.47,89.261 -14.891,89.609C-24.544,91.217 -40.665,94.345 -51.193,96.209C-55.227,96.698 -60.045,98.075 -63.701,96.622C-71.437,92.95 -13.716,32.419 -37.64,44.954C-95.372,80.878 -85.394,86.469 -76.153,21.272C-74.998,4.475 -90.244,33.494 -92.954,37.184C-96.024,42.108 -98.895,46.963 -101.387,50.619C-104.693,55.434 -107.086,58.102 -108.736,57.584C-111.943,55.41 -111.954,49.988 -112.982,46.246C-114.765,36.011 -117.173,19.986 -118.923,10.494C-119.547,8.192 -120.806,-0.314 -123.356,1.496C-127.4,8.822 -127.404,18.993 -129.331,28.086C-131.217,36.729 -131.909,51.985 -135.932,57.237C-141.765,63.5 -170.585,-3.233 -169.126,21.628C-168.688,28.036 -166.136,39.869 -164.347,50.349C-163.206,58.55 -161.012,63.839 -162.539,70.376C-164.952,73.993 -173.386,67.001 -177.27,64.81C-185.417,59.471 -197.595,50.968 -205.277,46.277C-218.57,38.305 -212.531,48.028 -208.669,53.613C-201.536,63.798 -190.34,78.47 -183.503,88.776C-175.737,100.137 -186.568,97.196 -194.108,96.209C-204.637,94.345 -220.757,91.217 -230.411,89.609C-244.107,87.513 -243.33,90.734 -232.685,97.713C-223.358,103.681 -207.425,113.602 -197.748,119.757C-194.732,121.83 -191.196,123.928 -189.193,126.641C-188.642,127.475 -188.502,128.212 -188.796,128.904C-191.146,132.192 -196.382,133.028 -200.243,134.498C-214.089,139.182 -231.963,142.467 -244.443,148.758C-248.503,151.393 -243.716,152.445 -240.949,152.224C-208.165,152.035 -32.842,152.563 -1.494,152.051C0.56,151.675 1.58,150.795 0.11,149.429L0,149.33Z" style="fill:white;fill-rule:nonzero;"/>
            </g>
        </g>
        <g transform="matrix(4.166667,0,0,4.166667,0,0)">
            <g transform="matrix(1,0,0,1,430.0502,485.5047)">
                <path d="M0,9.581C0,9.581 18.5,12.657 27.592,11.108C37.388,9.439 45.372,10.663 55.143,10.97C73.375,11.542 91.889,12.33 110.133,11.931C118.771,11.742 127.151,10.681 135.805,11.24C145.478,11.864 155.403,13.96 165.053,13.974C173.761,13.988 182.023,11.511 190.855,11.742C200.849,12.003 210.202,11.348 220.125,11.898C228.432,12.359 228.314,7.501 219.704,5.819C209.841,3.892 200.984,-1.422 190.855,-1.687C181.892,-1.922 173.864,0.391 165.053,0.546C155.54,0.713 145.364,-1.585 135.805,-2.189C127.144,-2.736 118.771,-1.687 110.133,-1.498C91.881,-1.099 73.381,-1.887 55.143,-2.459C47.106,-2.711 39.368,-4.407 31.315,-3.252C20.817,-1.747 10.82,2.36 0.211,2.84C-8.396,3.23 -8.663,8.291 0,9.581" style="fill:white;fill-rule:nonzero;"/>
            </g>
        </g>
        <g transform="matrix(4.166667,0,0,4.166667,0,0)">
            <g transform="matrix(1,0,0,1,463.6055,520.1426)">
                <path d="M0,6.805C11.37,7.9 31.3,11.355 42.712,11.084C54.06,10.814 64.878,8.85 76.197,9.479C86.751,10.066 97.273,10.364 107.849,9.872C113.433,9.613 119.003,8.895 124.573,8.408C131.122,7.837 147.064,7.347 153.542,6.699C161.968,5.856 162.423,1.491 153.964,0.379C148.061,-0.396 115.11,-3.15 109.535,-2.779C98.381,-2.037 87.333,-3.33 76.197,-3.95C65.389,-4.55 55.359,-1.059 44.603,-1.437C31.096,-1.911 10.468,-0.187 -1.567,0.262C-10.182,0.583 -8.657,7.128 0,6.805" style="fill:white;fill-rule:nonzero;"/>
            </g>
        </g>
        <g transform="matrix(4.166667,0,0,4.166667,0,0)">
            <g transform="matrix(1,0,0,1,498.2268,554.7222)">
                <path d="M0,4.052C9.975,7.488 25.744,9.302 36.244,8.628C46.375,7.979 73.316,7.281 83.607,5.34C92.089,3.74 90.566,-2.733 82.106,-1.137C72.881,0.602 44.159,-5.25 34.894,-4.79C26.163,-4.356 10.693,-2.935 1.975,-3.294C-7.709,-3.693 -8.135,1.249 0,4.052" style="fill:white;fill-rule:nonzero;"/>
            </g>
        </g>
    </g>
</svg>
