<?xml version="1.0" encoding="UTF-8" standalone="no"?>
<!DOCTYPE svg PUBLIC "-//W3C//DTD SVG 1.1//EN" "http://www.w3.org/Graphics/SVG/1.1/DTD/svg11.dtd">
<svg width="100%" height="100%" viewBox="0 0 1475 269" version="1.1" xmlns="http://www.w3.org/2000/svg" xmlns:xlink="http://www.w3.org/1999/xlink" xml:space="preserve" xmlns:serif="http://www.serif.com/" style="fill-rule:evenodd;clip-rule:evenodd;stroke-linejoin:round;stroke-miterlimit:2;">
    <g transform="matrix(1,0,0,1,-960.837008,-2143.25748)">
        <g transform="matrix(1,0,0,0.11866,814.968504,2181.05748)">
            <path d="M296.769,1772.286C302.769,1736.891 305.769,1679.584 305.769,1600.367C305.769,1521.149 305.569,1444.459 305.169,1370.298C304.769,1311.306 303.169,1267.905 300.369,1240.094C297.569,1212.284 292.069,1186.58 283.869,1162.984L284.769,1099.778C292.569,1104.834 303.369,1107.363 317.169,1107.363C326.969,1107.363 335.769,1104.834 343.569,1099.778L344.469,1162.984C338.469,1184.895 334.419,1209.756 332.319,1237.566C330.219,1265.377 329.069,1309.621 328.869,1370.298C328.469,1518.621 328.269,1597.838 328.269,1607.951C328.269,1670.314 328.769,1737.733 329.769,1810.209C310.769,1897.854 288.769,1941.677 263.769,1941.677C232.969,1941.677 205.969,1867.516 182.769,1719.193C171.369,1643.346 162.369,1543.903 155.769,1420.863C149.169,1297.822 145.869,1161.298 145.869,1011.29C145.869,738.242 157.069,517.443 179.469,348.895C201.869,176.976 229.369,91.016 261.969,91.016C286.369,91.016 308.469,125.569 328.269,194.673C328.869,263.778 329.169,325.298 329.169,379.234C329.169,380.919 328.969,444.125 328.569,568.851L319.569,573.907C316.969,471.093 312.469,390.189 306.069,331.197C297.469,248.609 282.869,207.314 262.269,207.314C235.869,207.314 214.569,281.476 198.369,429.798C182.169,578.121 174.069,771.109 174.069,1008.762C174.069,1254.842 183.269,1452.887 201.669,1602.895C220.069,1751.217 242.269,1825.379 268.269,1825.379C281.469,1825.379 290.969,1807.681 296.769,1772.286Z" style="fill-rule:nonzero;"/>
        </g>
        <g transform="matrix(1,0,0,0.11866,814.968504,2181.05748)">
            <path d="M440.469,1350.072L498.369,85.96L504.069,85.96L559.569,1350.072C565.969,1488.282 570.469,1582.669 573.069,1633.233C575.869,1688.854 578.769,1731.834 581.769,1762.173C584.769,1792.512 588.769,1818.637 593.769,1840.548L592.869,1903.754C585.069,1898.697 576.869,1896.169 568.269,1896.169C555.869,1896.169 545.769,1898.697 537.969,1903.754L537.069,1840.548C541.469,1825.379 544.469,1810.631 546.069,1796.304C547.669,1781.977 548.469,1763.016 548.469,1739.419C548.469,1705.709 543.669,1575.927 534.069,1350.072L531.669,1299.508L458.469,1299.508L456.369,1350.072C448.169,1533.79 444.069,1662.729 444.069,1736.891C444.069,1782.399 447.869,1816.951 455.469,1840.548L454.569,1903.754C446.769,1898.697 438.369,1896.169 429.369,1896.169C421.569,1896.169 414.169,1898.697 407.169,1903.754L406.269,1840.548C411.269,1818.637 415.269,1792.512 418.269,1762.173C421.269,1731.834 424.169,1688.854 426.969,1633.233C429.569,1582.669 434.069,1488.282 440.469,1350.072ZM527.169,1190.794L496.269,475.306L463.569,1190.794L527.169,1190.794Z" style="fill-rule:nonzero;"/>
        </g>
        <g transform="matrix(1,0,0,0.11866,814.968504,2181.05748)">
            <path d="M699.669,677.564L699.669,1375.354C699.669,1508.508 699.969,1600.367 700.569,1650.931C701.369,1711.608 703.019,1751.217 705.519,1769.758C708.019,1788.298 712.769,1797.568 719.769,1797.568C733.769,1797.568 743.969,1793.354 750.369,1784.927C759.569,1769.758 766.569,1730.991 771.369,1668.629C775.569,1616.379 779.269,1548.117 782.469,1463.842L791.169,1476.483C789.969,1607.951 787.469,1752.06 783.669,1908.81C761.669,1900.383 732.169,1896.169 695.169,1896.169C679.969,1896.169 668.469,1898.697 660.669,1903.754L659.769,1840.548C665.169,1822.008 668.919,1798.411 671.019,1769.758C673.119,1741.104 674.369,1695.596 674.769,1633.233C675.369,1577.612 675.669,1483.225 675.669,1350.072L675.669,677.564C675.669,544.411 675.369,450.024 674.769,394.403C674.369,332.04 673.119,286.532 671.019,257.879C668.919,229.226 665.169,205.629 659.769,187.089L660.669,123.883C668.469,128.939 677.369,131.468 687.369,131.468C697.769,131.468 706.869,128.939 714.669,123.883L715.569,187.089C710.169,205.629 706.419,229.226 704.319,257.879C702.219,286.532 700.969,332.04 700.569,394.403C699.969,450.024 699.669,544.411 699.669,677.564Z" style="fill-rule:nonzero;"/>
        </g>
        <g transform="matrix(1,0,0,0.11866,814.968504,2181.05748)">
            <path d="M897.369,1896.169C882.169,1896.169 870.669,1898.697 862.869,1903.754L861.969,1840.548C867.369,1822.008 871.119,1798.411 873.219,1769.758C875.319,1741.104 876.569,1695.596 876.969,1633.233C877.569,1577.612 877.869,1483.225 877.869,1350.072L877.869,677.564C877.869,544.411 877.569,450.024 876.969,394.403C876.569,332.04 875.319,286.532 873.219,257.879C871.119,229.226 867.369,205.629 861.969,187.089L862.869,123.883C870.669,128.939 879.769,131.468 890.169,131.468L945.369,131.468C959.769,131.468 970.869,128.939 978.669,123.883C980.469,226.698 981.869,347.21 982.869,485.419L974.169,498.06C970.769,412.101 966.869,349.738 962.469,310.972C958.669,275.577 952.969,252.823 945.369,242.71C938.369,234.282 929.769,230.068 919.569,230.068C912.569,230.068 908.119,237.232 906.219,251.558C904.319,265.885 903.169,299.173 902.769,351.423C902.169,403.673 901.869,490.476 901.869,611.83L901.869,935.443C917.469,935.443 931.069,931.23 942.669,922.802C949.269,916.06 954.019,901.312 956.919,878.558C959.819,855.804 962.469,814.089 964.869,753.411L972.069,766.052C971.469,831.786 971.169,904.262 971.169,983.48C971.169,1064.383 971.469,1137.701 972.069,1203.435L964.869,1216.076C962.669,1155.399 960.069,1113.683 957.069,1090.929C954.069,1068.175 949.269,1053.427 942.669,1046.685C933.669,1038.258 920.069,1034.044 901.869,1034.044L901.869,1375.354C901.869,1457.943 902.169,1549.802 902.769,1650.931C902.969,1709.923 904.419,1749.11 907.119,1768.493C909.819,1787.877 914.769,1797.568 921.969,1797.568C935.569,1797.568 946.169,1793.354 953.769,1784.927C962.169,1774.814 968.769,1741.104 973.569,1683.798C977.569,1631.548 981.069,1566.657 984.069,1489.125L992.169,1501.766C990.569,1634.919 988.169,1770.6 984.969,1908.81C964.569,1900.383 935.369,1896.169 897.369,1896.169Z" style="fill-rule:nonzero;"/>
        </g>
        <g transform="matrix(1,0,0,0.11866,814.968504,2181.05748)">
            <path d="M1129.569,1069.439C1120.769,1069.439 1114.869,1066.068 1111.869,1059.326L1111.869,1350.072C1111.869,1464.685 1112.069,1559.072 1112.469,1633.233C1112.869,1695.596 1114.069,1740.683 1116.069,1768.493C1118.069,1796.304 1122.069,1820.322 1128.069,1840.548L1127.169,1903.754C1119.369,1898.697 1110.369,1896.169 1100.169,1896.169C1089.769,1896.169 1080.669,1898.697 1072.869,1903.754L1071.969,1840.548C1077.369,1822.008 1081.119,1798.411 1083.219,1769.758C1085.319,1741.104 1086.569,1695.596 1086.969,1633.233C1087.569,1577.612 1087.869,1483.225 1087.869,1350.072L1087.869,677.564C1087.869,544.411 1087.569,450.024 1086.969,394.403C1086.569,332.04 1085.319,286.532 1083.219,257.879C1081.119,229.226 1077.369,205.629 1071.969,187.089L1072.869,123.883C1080.669,128.939 1089.769,131.468 1100.169,131.468C1106.369,131.468 1112.069,130.625 1117.269,128.939C1122.669,127.254 1129.269,126.411 1137.069,126.411C1156.869,126.411 1172.369,170.234 1183.569,257.879C1194.969,345.524 1200.669,451.71 1200.669,576.435C1200.669,783.75 1189.369,929.544 1166.769,1013.818C1184.569,1291.923 1201.469,1516.092 1217.469,1686.326C1227.469,1787.455 1236.669,1848.133 1245.069,1868.358L1245.069,1921.451C1241.269,1934.935 1236.169,1941.677 1229.769,1941.677C1216.369,1941.677 1203.769,1871.729 1191.969,1731.834C1176.169,1551.488 1160.869,1327.318 1146.069,1059.326C1142.669,1066.068 1137.169,1069.439 1129.569,1069.439ZM1129.569,225.012C1122.969,225.012 1118.619,233.018 1116.519,249.03C1114.419,265.042 1113.169,299.173 1112.769,351.423C1112.169,403.673 1111.869,490.476 1111.869,611.83L1111.869,965.782C1112.869,967.467 1117.469,968.31 1125.669,968.31C1141.669,968.31 1153.919,936.286 1162.419,872.238C1170.919,808.189 1175.169,718.016 1175.169,601.718C1175.169,483.734 1171.269,391.454 1163.469,324.877C1155.669,258.3 1144.369,225.012 1129.569,225.012Z" style="fill-rule:nonzero;"/>
        </g>
        <g transform="matrix(1,0,0,0.11866,814.968504,2181.05748)">
            <path d="M1350.969,677.564L1350.969,1350.072C1350.969,1483.225 1351.269,1577.612 1351.869,1633.233C1351.869,1693.911 1352.919,1738.155 1355.019,1765.965C1357.119,1793.776 1361.169,1818.637 1367.169,1840.548L1366.269,1903.754C1358.469,1898.697 1349.469,1896.169 1339.269,1896.169C1328.869,1896.169 1319.769,1898.697 1311.969,1903.754L1311.069,1840.548C1316.469,1822.008 1320.219,1798.411 1322.319,1769.758C1324.419,1741.104 1325.669,1695.596 1326.069,1633.233C1326.669,1577.612 1326.969,1483.225 1326.969,1350.072L1326.969,677.564C1326.969,544.411 1326.669,450.024 1326.069,394.403C1325.669,332.04 1324.419,286.532 1322.319,257.879C1320.219,229.226 1316.469,205.629 1311.069,187.089L1311.969,123.883C1319.769,128.939 1328.869,131.468 1339.269,131.468C1349.469,131.468 1358.469,128.939 1366.269,123.883L1367.169,187.089C1361.169,209 1357.119,233.861 1355.019,261.671C1352.919,289.482 1351.869,333.726 1351.869,394.403C1351.269,450.024 1350.969,544.411 1350.969,677.564ZM1309.869,37.923L1307.169,-22.754L1357.269,-280.633C1362.069,-305.915 1366.369,-318.556 1370.169,-318.556C1373.769,-318.556 1376.669,-308.865 1378.869,-289.482C1381.069,-270.099 1382.169,-245.238 1382.169,-214.899C1382.169,-184.56 1380.919,-160.121 1378.419,-141.581C1375.919,-123.04 1371.669,-107.028 1365.669,-93.544L1309.869,37.923Z" style="fill-rule:nonzero;"/>
        </g>
        <g transform="matrix(1,0,0,0.11866,814.968504,2181.05748)">
            <path d="M1467.369,1350.072L1525.269,85.96L1530.969,85.96L1586.469,1350.072C1592.869,1488.282 1597.369,1582.669 1599.969,1633.233C1602.769,1688.854 1605.669,1731.834 1608.669,1762.173C1611.669,1792.512 1615.669,1818.637 1620.669,1840.548L1619.769,1903.754C1611.969,1898.697 1603.769,1896.169 1595.169,1896.169C1582.769,1896.169 1572.669,1898.697 1564.869,1903.754L1563.969,1840.548C1568.369,1825.379 1571.369,1810.631 1572.969,1796.304C1574.569,1781.977 1575.369,1763.016 1575.369,1739.419C1575.369,1705.709 1570.569,1575.927 1560.969,1350.072L1558.569,1299.508L1485.369,1299.508L1483.269,1350.072C1475.069,1533.79 1470.969,1662.729 1470.969,1736.891C1470.969,1782.399 1474.769,1816.951 1482.369,1840.548L1481.469,1903.754C1473.669,1898.697 1465.269,1896.169 1456.269,1896.169C1448.469,1896.169 1441.069,1898.697 1434.069,1903.754L1433.169,1840.548C1438.169,1818.637 1442.169,1792.512 1445.169,1762.173C1448.169,1731.834 1451.069,1688.854 1453.869,1633.233C1456.469,1582.669 1460.969,1488.282 1467.369,1350.072ZM1554.069,1190.794L1523.169,475.306L1490.469,1190.794L1554.069,1190.794Z" style="fill-rule:nonzero;"/>
        </g>
    </g>
</svg>
