<?xml version="1.0" encoding="UTF-8" standalone="no"?>
<!DOCTYPE svg PUBLIC "-//W3C//DTD SVG 1.1//EN" "http://www.w3.org/Graphics/SVG/1.1/DTD/svg11.dtd">
<svg width="100%" height="100%" viewBox="0 0 2405 221" version="1.1" xmlns="http://www.w3.org/2000/svg" xmlns:xlink="http://www.w3.org/1999/xlink" xml:space="preserve" xmlns:serif="http://www.serif.com/" style="fill-rule:evenodd;clip-rule:evenodd;stroke-linejoin:round;stroke-miterlimit:2;">
    <g transform="matrix(1,0,0,1,-531.3,-2943.2)">
        <g transform="matrix(1.744749,0,0,0.681499,-1681.100573,1721.976581)">
            <path d="M1301.047,1816.178C1297.265,1816.178 1294.771,1817.572 1293.568,1820.36C1292.364,1823.148 1291.648,1829.091 1291.418,1838.189C1291.075,1847.286 1290.903,1862.4 1290.903,1883.53L1290.903,2012.07C1290.903,2032.026 1291.017,2048.46 1291.247,2061.373C1291.476,2072.232 1292.164,2080.082 1293.31,2084.924C1294.456,2089.766 1296.749,2093.948 1300.188,2097.47L1299.672,2108.475C1295.201,2107.595 1290.043,2107.155 1284.197,2107.155C1278.236,2107.155 1273.02,2107.595 1268.55,2108.475L1268.034,2097.47C1271.129,2094.242 1273.278,2090.133 1274.482,2085.144C1275.686,2080.155 1276.402,2072.232 1276.631,2061.373C1276.975,2051.689 1277.147,2035.254 1277.147,2012.07L1277.147,1894.975C1277.147,1871.791 1276.975,1855.357 1276.631,1845.672C1276.402,1834.814 1275.686,1826.89 1274.482,1821.901C1273.278,1816.912 1271.129,1812.803 1268.034,1809.575L1268.55,1798.57C1273.02,1799.451 1278.236,1799.891 1284.197,1799.891C1287.75,1799.891 1291.189,1799.744 1294.513,1799.451C1297.838,1799.157 1302.194,1799.01 1307.581,1799.01C1318.471,1799.01 1327.412,1806.641 1334.405,1821.901C1341.626,1836.868 1345.237,1856.531 1345.237,1880.889C1345.237,1907.008 1341.569,1927.991 1334.233,1943.838C1327.011,1959.686 1317.669,1967.609 1306.206,1967.609C1304.028,1967.609 1301.678,1966.876 1299.156,1965.408L1299.5,1951.762C1309.702,1951.762 1317.468,1945.746 1322.798,1933.713C1328.129,1921.681 1330.794,1904.66 1330.794,1882.649C1330.794,1860.933 1328.186,1844.425 1322.97,1833.126C1317.755,1821.828 1310.447,1816.178 1301.047,1816.178Z" style="fill-rule:nonzero;"/>
        </g>
        <g transform="matrix(1.744749,0,0,0.681499,-1681.100573,1721.976581)">
            <path d="M1419.517,1963.207C1414.473,1963.207 1411.092,1962.62 1409.372,1961.446L1409.372,2012.07C1409.372,2032.026 1409.487,2048.46 1409.716,2061.373C1409.946,2072.232 1410.633,2080.082 1411.78,2084.924C1412.926,2089.766 1415.219,2093.948 1418.657,2097.47L1418.142,2108.475C1413.671,2107.595 1408.513,2107.155 1402.667,2107.155C1396.706,2107.155 1391.49,2107.595 1387.02,2108.475L1386.504,2097.47C1389.599,2094.242 1391.748,2090.133 1392.952,2085.144C1394.155,2080.155 1394.872,2072.232 1395.101,2061.373C1395.445,2051.689 1395.617,2035.254 1395.617,2012.07L1395.617,1894.975C1395.617,1871.791 1395.445,1855.357 1395.101,1845.672C1394.872,1834.814 1394.155,1826.89 1392.952,1821.901C1391.748,1816.912 1389.599,1812.803 1386.504,1809.575L1387.02,1798.57C1391.49,1799.451 1396.706,1799.891 1402.667,1799.891C1406.22,1799.891 1409.487,1799.744 1412.467,1799.451C1415.562,1799.157 1419.345,1799.01 1423.816,1799.01C1435.164,1799.01 1444.048,1806.641 1450.467,1821.901C1457.001,1837.162 1460.268,1855.65 1460.268,1877.367C1460.268,1913.464 1453.791,1938.849 1440.838,1953.523C1451.04,2001.945 1460.727,2040.977 1469.897,2070.618C1475.628,2088.226 1480.901,2098.791 1485.716,2102.312L1485.716,2111.557C1483.538,2113.904 1480.615,2115.078 1476.947,2115.078C1469.266,2115.078 1462.045,2102.899 1455.282,2078.541C1446.226,2047.14 1437.457,2008.108 1428.974,1961.446C1427.025,1962.62 1423.873,1963.207 1419.517,1963.207ZM1419.517,1816.178C1415.734,1816.178 1413.241,1817.572 1412.038,1820.36C1410.834,1823.148 1410.118,1829.091 1409.888,1838.189C1409.544,1847.286 1409.372,1862.4 1409.372,1883.53L1409.372,1945.159C1409.946,1945.452 1412.582,1945.599 1417.282,1945.599C1426.452,1945.599 1433.473,1940.023 1438.345,1928.871C1443.217,1917.719 1445.653,1902.019 1445.653,1881.769C1445.653,1861.226 1443.417,1845.159 1438.947,1833.566C1434.476,1821.974 1428,1816.178 1419.517,1816.178Z" style="fill-rule:nonzero;"/>
        </g>
        <g transform="matrix(1.744749,0,0,0.681499,-1681.100573,1721.976581)">
            <path d="M1518.041,1953.963C1518.041,1907.595 1524.059,1869.15 1536.096,1838.629C1548.246,1808.108 1562.976,1792.847 1580.285,1792.847C1598.397,1792.847 1613.356,1808.255 1625.163,1839.069C1637.084,1869.59 1643.045,1907.888 1643.045,1953.963C1643.045,1999.744 1637.084,2038.189 1625.163,2069.297C1613.241,2099.818 1598.798,2115.078 1581.833,2115.078C1563.148,2115.078 1547.845,2100.111 1535.924,2070.177C1524.002,2040.243 1518.041,2001.505 1518.041,1953.963ZM1577.706,1814.858C1565.212,1814.858 1554.838,1826.743 1546.584,1850.514C1538.331,1874.286 1534.204,1906.861 1534.204,1948.24C1534.204,1991.38 1539.019,2026.45 1548.648,2053.449C1558.391,2080.155 1570.198,2093.508 1584.068,2093.508C1596.563,2093.508 1606.822,2081.036 1614.846,2056.091C1622.87,2031.146 1626.882,1998.864 1626.882,1959.245C1626.882,1917.279 1622.125,1882.796 1612.611,1855.797C1603.211,1828.504 1591.576,1814.858 1577.706,1814.858Z" style="fill-rule:nonzero;"/>
        </g>
        <g transform="matrix(1.744749,0,0,0.681499,-1681.100573,1721.976581)">
            <path d="M1721.452,1816.178C1717.669,1816.178 1715.176,1817.572 1713.972,1820.36C1712.769,1823.148 1712.052,1829.091 1711.823,1838.189C1711.479,1847.286 1711.307,1862.4 1711.307,1883.53L1711.307,2012.07C1711.307,2032.026 1711.422,2048.46 1711.651,2061.373C1711.88,2072.232 1712.568,2080.082 1713.714,2084.924C1714.861,2089.766 1717.153,2093.948 1720.592,2097.47L1720.076,2108.475C1715.606,2107.595 1710.447,2107.155 1704.601,2107.155C1698.64,2107.155 1693.425,2107.595 1688.954,2108.475L1688.438,2097.47C1691.533,2094.242 1693.683,2090.133 1694.886,2085.144C1696.09,2080.155 1696.806,2072.232 1697.036,2061.373C1697.38,2051.689 1697.552,2035.254 1697.552,2012.07L1697.552,1894.975C1697.552,1871.791 1697.38,1855.357 1697.036,1845.672C1696.806,1834.814 1696.09,1826.89 1694.886,1821.901C1693.683,1816.912 1691.533,1812.803 1688.438,1809.575L1688.954,1798.57C1693.425,1799.451 1698.64,1799.891 1704.601,1799.891C1708.155,1799.891 1711.594,1799.744 1714.918,1799.451C1718.242,1799.157 1722.598,1799.01 1727.986,1799.01C1738.876,1799.01 1747.817,1806.641 1754.809,1821.901C1762.031,1836.868 1765.642,1856.531 1765.642,1880.889C1765.642,1907.008 1761.973,1927.991 1754.637,1943.838C1747.415,1959.686 1738.073,1967.609 1726.61,1967.609C1724.432,1967.609 1722.082,1966.876 1719.56,1965.408L1719.904,1951.762C1730.106,1951.762 1737.873,1945.746 1743.203,1933.713C1748.533,1921.681 1751.198,1904.66 1751.198,1882.649C1751.198,1860.933 1748.59,1844.425 1743.375,1833.126C1738.159,1821.828 1730.851,1816.178 1721.452,1816.178Z" style="fill-rule:nonzero;"/>
        </g>
        <g transform="matrix(1.744749,0,0,0.681499,-1681.100573,1721.976581)">
            <path d="M1829.777,1894.975L1829.777,2012.07C1829.777,2035.254 1829.949,2051.689 1830.293,2061.373C1830.293,2071.938 1830.895,2079.642 1832.098,2084.484C1833.302,2089.326 1835.623,2093.655 1839.062,2097.47L1838.546,2108.475C1834.075,2107.595 1828.917,2107.155 1823.071,2107.155C1817.11,2107.155 1811.895,2107.595 1807.424,2108.475L1806.908,2097.47C1810.003,2094.242 1812.153,2090.133 1813.356,2085.144C1814.56,2080.155 1815.276,2072.232 1815.505,2061.373C1815.849,2051.689 1816.021,2035.254 1816.021,2012.07L1816.021,1894.975C1816.021,1871.791 1815.849,1855.357 1815.505,1845.672C1815.276,1834.814 1814.56,1826.89 1813.356,1821.901C1812.153,1816.912 1810.003,1812.803 1806.908,1809.575L1807.424,1798.57C1811.895,1799.451 1817.11,1799.891 1823.071,1799.891C1828.917,1799.891 1834.075,1799.451 1838.546,1798.57L1839.062,1809.575C1835.623,1813.39 1833.302,1817.719 1832.098,1822.561C1830.895,1827.404 1830.293,1835.107 1830.293,1845.672C1829.949,1855.357 1829.777,1871.791 1829.777,1894.975Z" style="fill-rule:nonzero;"/>
        </g>
        <g transform="matrix(1.744749,0,0,0.681499,-1681.100573,1721.976581)">
            <path d="M1905.089,2107.155C1896.377,2107.155 1889.786,2107.595 1885.315,2108.475L1884.799,2097.47C1887.894,2094.242 1890.043,2090.133 1891.247,2085.144C1892.451,2080.155 1893.167,2072.232 1893.396,2061.373C1893.74,2051.689 1893.912,2035.254 1893.912,2012.07L1893.912,1894.975C1893.912,1871.791 1893.74,1855.357 1893.396,1845.672C1893.167,1834.814 1892.451,1826.89 1891.247,1821.901C1890.043,1816.912 1887.894,1812.803 1884.799,1809.575L1885.315,1798.57C1889.786,1799.451 1895.001,1799.891 1900.962,1799.891L1932.6,1799.891C1940.853,1799.891 1947.215,1799.451 1951.686,1798.57C1952.717,1816.472 1953.52,1837.455 1954.093,1861.52L1949.106,1863.721C1947.158,1848.754 1944.922,1837.895 1942.401,1831.145C1940.223,1824.982 1936.956,1821.021 1932.6,1819.26C1928.588,1817.792 1923.659,1817.059 1917.812,1817.059C1913.8,1817.059 1911.25,1818.306 1910.161,1820.801C1909.072,1823.295 1908.413,1829.091 1908.184,1838.189C1907.84,1847.286 1907.668,1862.4 1907.668,1883.53L1907.668,1939.876C1916.609,1939.876 1924.404,1939.143 1931.052,1937.675C1934.835,1936.501 1937.557,1933.934 1939.22,1929.972C1940.882,1926.01 1942.401,1918.746 1943.776,1908.181L1947.903,1910.382C1947.559,1921.828 1947.387,1934.447 1947.387,1948.24C1947.387,1962.327 1947.559,1975.093 1947.903,1986.538L1943.776,1988.739C1942.515,1978.174 1941.025,1970.911 1939.306,1966.949C1937.586,1962.987 1934.835,1960.419 1931.052,1959.245C1925.894,1957.778 1918.099,1957.044 1907.668,1957.044L1907.668,2016.472C1907.668,2030.852 1907.84,2046.846 1908.184,2064.455C1908.298,2074.726 1909.129,2081.549 1910.677,2084.924C1912.224,2088.299 1915.061,2089.987 1919.188,2089.987C1926.983,2089.987 1933.058,2089.253 1937.414,2087.786C1942.229,2086.025 1946.011,2080.155 1948.762,2070.177C1951.055,2061.08 1953.061,2049.781 1954.781,2036.281L1959.423,2038.482C1958.506,2061.667 1957.13,2085.291 1955.296,2109.356C1943.604,2107.888 1926.868,2107.155 1905.089,2107.155Z" style="fill-rule:nonzero;"/>
        </g>
        <g transform="matrix(1.744749,0,0,0.681499,-1681.100573,1721.976581)">
            <path d="M2052.617,2110.676C2046.427,2110.676 2040.294,2110.089 2034.219,2108.915C2028.144,2107.742 2023.788,2107.155 2021.151,2107.155C2015.305,2107.155 2010.147,2107.595 2005.676,2108.475L2005.16,2097.47C2008.255,2094.242 2010.405,2090.133 2011.608,2085.144C2012.812,2080.155 2013.528,2072.232 2013.758,2061.373C2014.101,2051.689 2014.273,2035.254 2014.273,2012.07L2014.273,1894.975C2014.273,1871.791 2014.101,1855.357 2013.758,1845.672C2013.528,1834.814 2012.812,1826.89 2011.608,1821.901C2010.405,1816.912 2008.255,1812.803 2005.16,1809.575L2005.676,1798.57C2010.147,1799.451 2015.362,1799.891 2021.323,1799.891C2022.584,1799.891 2027.456,1799.597 2035.938,1799.01C2042.243,1798.13 2047.401,1797.69 2051.413,1797.69C2063.335,1797.69 2074.196,1803.412 2083.997,1814.858C2093.798,1826.303 2101.822,1844.131 2108.069,1868.343C2114.316,1892.554 2117.44,1921.388 2117.44,1954.843C2117.44,2001.505 2111.479,2039.216 2099.558,2067.976C2087.751,2096.443 2072.104,2110.676 2052.617,2110.676ZM2051.413,2089.987C2067.347,2089.987 2079.698,2078.248 2088.467,2054.77C2097.237,2031.292 2101.621,1998.13 2101.621,1955.284C2101.621,1913.024 2096.749,1879.568 2087.006,1854.916C2077.377,1829.971 2065.054,1817.499 2050.038,1817.499C2041.326,1817.499 2035.594,1818.82 2032.843,1821.461C2030.207,1823.809 2028.774,1829.385 2028.545,1838.189C2028.201,1847.286 2028.029,1862.4 2028.029,1883.53L2028.029,2016.472C2028.029,2039.656 2028.201,2055.651 2028.545,2064.455C2029.118,2075.607 2030.78,2082.65 2033.531,2085.585C2036.282,2088.519 2042.243,2089.987 2051.413,2089.987Z" style="fill-rule:nonzero;"/>
        </g>
        <g transform="matrix(1.744749,0,0,0.681499,-1681.100573,1721.976581)">
            <path d="M2174.354,2012.07L2207.539,1791.967L2210.806,1791.967L2242.616,2012.07C2246.284,2036.135 2248.863,2052.569 2250.353,2061.373C2251.958,2071.058 2253.62,2078.541 2255.34,2083.824C2257.059,2089.106 2259.352,2093.655 2262.217,2097.47L2261.702,2108.475C2257.231,2107.595 2252.531,2107.155 2247.602,2107.155C2240.495,2107.155 2234.706,2107.595 2230.236,2108.475L2229.72,2097.47C2232.242,2094.829 2233.961,2092.261 2234.878,2089.766C2235.795,2087.272 2236.254,2083.97 2236.254,2079.862C2236.254,2073.992 2233.503,2051.395 2228,2012.07L2226.625,2003.266L2184.67,2003.266L2183.467,2012.07C2178.767,2044.058 2176.417,2066.509 2176.417,2079.422C2176.417,2087.345 2178.595,2093.362 2182.951,2097.47L2182.435,2108.475C2177.965,2107.595 2173.15,2107.155 2167.992,2107.155C2163.521,2107.155 2159.28,2107.595 2155.268,2108.475L2154.752,2097.47C2157.618,2093.655 2159.91,2089.106 2161.63,2083.824C2163.349,2078.541 2165.011,2071.058 2166.616,2061.373C2168.106,2052.569 2170.686,2036.135 2174.354,2012.07ZM2224.046,1984.337L2206.335,1859.759L2187.593,1984.337L2224.046,1984.337Z" style="fill-rule:nonzero;"/>
        </g>
        <g transform="matrix(1.744749,0,0,0.681499,-1681.100573,1721.976581)">
            <path d="M2347.502,2110.676C2341.312,2110.676 2335.179,2110.089 2329.104,2108.915C2323.028,2107.742 2318.673,2107.155 2316.036,2107.155C2310.19,2107.155 2305.032,2107.595 2300.561,2108.475L2300.045,2097.47C2303.14,2094.242 2305.29,2090.133 2306.493,2085.144C2307.697,2080.155 2308.413,2072.232 2308.642,2061.373C2308.986,2051.689 2309.158,2035.254 2309.158,2012.07L2309.158,1894.975C2309.158,1871.791 2308.986,1855.357 2308.642,1845.672C2308.413,1834.814 2307.697,1826.89 2306.493,1821.901C2305.29,1816.912 2303.14,1812.803 2300.045,1809.575L2300.561,1798.57C2305.032,1799.451 2310.247,1799.891 2316.208,1799.891C2317.469,1799.891 2322.341,1799.597 2330.823,1799.01C2337.128,1798.13 2342.286,1797.69 2346.298,1797.69C2358.22,1797.69 2369.081,1803.412 2378.882,1814.858C2388.683,1826.303 2396.707,1844.131 2402.954,1868.343C2409.201,1892.554 2412.325,1921.388 2412.325,1954.843C2412.325,2001.505 2406.364,2039.216 2394.443,2067.976C2382.636,2096.443 2366.989,2110.676 2347.502,2110.676ZM2346.298,2089.987C2362.232,2089.987 2374.583,2078.248 2383.352,2054.77C2392.122,2031.292 2396.506,1998.13 2396.506,1955.284C2396.506,1913.024 2391.634,1879.568 2381.891,1854.916C2372.262,1829.971 2359.939,1817.499 2344.923,1817.499C2336.211,1817.499 2330.479,1818.82 2327.728,1821.461C2325.092,1823.809 2323.659,1829.385 2323.43,1838.189C2323.086,1847.286 2322.914,1862.4 2322.914,1883.53L2322.914,2016.472C2322.914,2039.656 2323.086,2055.651 2323.43,2064.455C2324.003,2075.607 2325.665,2082.65 2328.416,2085.585C2331.167,2088.519 2337.128,2089.987 2346.298,2089.987Z" style="fill-rule:nonzero;"/>
        </g>
        <g transform="matrix(1.744749,0,0,0.681499,-1681.100573,1721.976581)">
            <path d="M2477.836,2107.155C2469.124,2107.155 2462.533,2107.595 2458.062,2108.475L2457.546,2097.47C2460.641,2094.242 2462.791,2090.133 2463.994,2085.144C2465.198,2080.155 2465.914,2072.232 2466.144,2061.373C2466.488,2051.689 2466.659,2035.254 2466.659,2012.07L2466.659,1894.975C2466.659,1871.791 2466.488,1855.357 2466.144,1845.672C2465.914,1834.814 2465.198,1826.89 2463.994,1821.901C2462.791,1816.912 2460.641,1812.803 2457.546,1809.575L2458.062,1798.57C2462.533,1799.451 2467.748,1799.891 2473.709,1799.891L2505.347,1799.891C2513.6,1799.891 2519.962,1799.451 2524.433,1798.57C2525.465,1816.472 2526.267,1837.455 2526.84,1861.52L2521.854,1863.721C2519.905,1848.754 2517.67,1837.895 2515.148,1831.145C2512.97,1824.982 2509.703,1821.021 2505.347,1819.26C2501.335,1817.792 2496.406,1817.059 2490.56,1817.059C2486.548,1817.059 2483.997,1818.306 2482.908,1820.801C2481.819,1823.295 2481.16,1829.091 2480.931,1838.189C2480.587,1847.286 2480.415,1862.4 2480.415,1883.53L2480.415,1939.876C2489.356,1939.876 2497.151,1939.143 2503.799,1937.675C2507.582,1936.501 2510.305,1933.934 2511.967,1929.972C2513.629,1926.01 2515.148,1918.746 2516.523,1908.181L2520.65,1910.382C2520.306,1921.828 2520.134,1934.447 2520.134,1948.24C2520.134,1962.327 2520.306,1975.093 2520.65,1986.538L2516.523,1988.739C2515.262,1978.174 2513.772,1970.911 2512.053,1966.949C2510.333,1962.987 2507.582,1960.419 2503.799,1959.245C2498.641,1957.778 2490.846,1957.044 2480.415,1957.044L2480.415,2016.472C2480.415,2030.852 2480.587,2046.846 2480.931,2064.455C2481.045,2074.726 2481.877,2081.549 2483.424,2084.924C2484.972,2088.299 2487.809,2089.987 2491.935,2089.987C2499.73,2089.987 2505.806,2089.253 2510.161,2087.786C2514.976,2086.025 2518.759,2080.155 2521.51,2070.177C2523.802,2061.08 2525.808,2049.781 2527.528,2036.281L2532.17,2038.482C2531.253,2061.667 2529.878,2085.291 2528.044,2109.356C2516.351,2107.888 2499.616,2107.155 2477.836,2107.155Z" style="fill-rule:nonzero;"/>
        </g>
        <g transform="matrix(1.744749,0,0,0.681499,-1681.100573,1721.976581)">
            <path d="M2609.545,2095.269C2616.309,2095.269 2621.811,2090.28 2626.052,2080.302C2630.293,2070.324 2632.414,2057.705 2632.414,2042.444C2632.414,2026.303 2630.236,2012.657 2625.88,2001.505C2621.639,1990.94 2616.022,1979.201 2609.03,1966.289C2602.496,1954.843 2597.452,1945.305 2593.898,1937.675C2591.262,1932.099 2588.74,1925.349 2586.333,1917.426C2582.321,1903.926 2580.315,1888.079 2580.315,1869.884C2580.315,1847.873 2583.524,1829.531 2589.944,1814.858C2596.592,1800.184 2604.846,1792.847 2614.704,1792.847C2624.677,1792.847 2634.076,1798.864 2642.903,1810.896C2642.903,1815.004 2642.931,1819.48 2642.989,1824.322C2643.046,1829.164 2643.103,1832.906 2643.161,1835.547C2643.218,1838.189 2643.247,1840.096 2643.247,1841.27C2643.247,1842.737 2643.218,1844.792 2643.161,1847.433C2643.103,1850.074 2643.046,1853.889 2642.989,1858.878C2642.931,1863.867 2642.903,1868.416 2642.903,1872.525L2638.088,1873.405C2636.369,1856.09 2633.962,1842.737 2630.867,1833.346C2626.281,1819.847 2620.435,1813.097 2613.328,1813.097C2607.253,1813.097 2602.324,1817.572 2598.541,1826.523C2594.758,1835.474 2592.867,1847.433 2592.867,1862.4C2592.867,1876.487 2594.873,1888.959 2598.885,1899.818C2601.865,1907.154 2607.367,1918.159 2615.391,1932.833C2622.728,1946.039 2627.714,1955.284 2630.351,1960.566C2633.102,1965.848 2635.624,1971.865 2637.916,1978.614C2643.304,1995.049 2645.998,2013.537 2645.998,2034.08C2645.998,2058.732 2642.559,2078.395 2635.681,2093.068C2628.803,2107.742 2619.69,2115.078 2608.342,2115.078C2597.452,2115.078 2588.052,2110.236 2580.143,2100.552C2579.34,2089.693 2578.194,2065.922 2576.704,2029.238L2582.034,2026.157C2584.098,2042.004 2586.104,2054.183 2588.052,2062.694C2590.803,2074.726 2593.726,2083.163 2596.821,2088.006C2599.916,2092.848 2604.158,2095.269 2609.545,2095.269Z" style="fill-rule:nonzero;"/>
        </g>
    </g>
</svg>
